<svg viewBox="0 0 240 120" fill="none" xmlns="http://www.w3.org/2000/svg">
<path d="M182.223 89.2549C193.228 87.9604 225.632 94.1094 240 100.582V120H204.081C203.623 114.822 184.975 104.789 181.307 103.171C177.638 101.553 136.522 106.569 133.771 107.378C131.019 108.188 96.0171 96.0512 93.2652 96.0512C90.5134 96.0512 57.0407 104.304 54.1365 104.789C51.2324 105.275 43.4371 103.333 40.2267 101.715C37.0163 100.097 22.3434 107.378 22.0377 106.569C21.732 105.76 38.2397 95.7276 40.2267 96.8603C41.8164 97.7665 49.1429 98.5324 52.6075 98.8021C50.8242 97.5615 46.7075 94.789 44.5065 93.6239C41.7552 92.1676 38.5454 92.4912 37.0169 92.4912C35.7941 92.4912 27.6422 84.5082 23.7191 80.5167C27.2855 82.8361 34.9382 87.6367 37.0169 88.284C39.6153 89.0931 46.1878 89.2549 48.3277 89.2549C50.4676 89.2549 56.5815 96.0512 60.5556 97.6694C64.5297 99.2875 86.8456 91.5203 93.2652 91.5203C99.6849 91.5203 118.944 96.3748 130.255 97.6694C141.565 98.9639 171.218 90.5494 182.223 89.2549Z" fill="#9E7146"/>
<path d="M182.223 89.2549C193.228 87.9604 225.632 94.1094 240 100.582V120H204.081C203.623 114.822 184.975 104.789 181.307 103.171C177.638 101.553 136.522 106.569 133.771 107.378C131.019 108.188 96.0171 96.0512 93.2652 96.0512C90.5134 96.0512 57.0407 104.304 54.1365 104.789C51.2324 105.275 43.4371 103.333 40.2267 101.715C37.0163 100.097 22.3434 107.378 22.0377 106.569C21.732 105.76 38.2397 95.7276 40.2267 96.8603C41.8164 97.7665 49.1429 98.5324 52.6075 98.8021C50.8242 97.5615 46.7075 94.789 44.5065 93.6239C41.7552 92.1676 38.5454 92.4912 37.0169 92.4912C35.7941 92.4912 27.6422 84.5082 23.7191 80.5167C27.2855 82.8361 34.9382 87.6367 37.0169 88.284C39.6153 89.0931 46.1878 89.2549 48.3277 89.2549C50.4676 89.2549 56.5815 96.0512 60.5556 97.6694C64.5297 99.2875 86.8456 91.5203 93.2652 91.5203C99.6849 91.5203 118.944 96.3748 130.255 97.6694C141.565 98.9639 171.218 90.5494 182.223 89.2549Z" fill="url(#paint0_radial_2912_100)"/>
<path d="M182.223 89.2549C193.228 87.9604 225.632 94.1094 240 100.582V120H204.081C203.623 114.822 184.975 104.789 181.307 103.171C177.638 101.553 136.522 106.569 133.771 107.378C131.019 108.188 96.0171 96.0512 93.2652 96.0512C90.5134 96.0512 57.0407 104.304 54.1365 104.789C51.2324 105.275 43.4371 103.333 40.2267 101.715C37.0163 100.097 22.3434 107.378 22.0377 106.569C21.732 105.76 38.2397 95.7276 40.2267 96.8603C41.8164 97.7665 49.1429 98.5324 52.6075 98.8021C50.8242 97.5615 46.7075 94.789 44.5065 93.6239C41.7552 92.1676 38.5454 92.4912 37.0169 92.4912C35.7941 92.4912 27.6422 84.5082 23.7191 80.5167C27.2855 82.8361 34.9382 87.6367 37.0169 88.284C39.6153 89.0931 46.1878 89.2549 48.3277 89.2549C50.4676 89.2549 56.5815 96.0512 60.5556 97.6694C64.5297 99.2875 86.8456 91.5203 93.2652 91.5203C99.6849 91.5203 118.944 96.3748 130.255 97.6694C141.565 98.9639 171.218 90.5494 182.223 89.2549Z" fill="url(#paint1_radial_2912_100)"/>
<path d="M182.223 89.2549C193.228 87.9604 225.632 94.1094 240 100.582V120H204.081C203.623 114.822 184.975 104.789 181.307 103.171C177.638 101.553 136.522 106.569 133.771 107.378C131.019 108.188 96.0171 96.0512 93.2652 96.0512C90.5134 96.0512 57.0407 104.304 54.1365 104.789C51.2324 105.275 43.4371 103.333 40.2267 101.715C37.0163 100.097 22.3434 107.378 22.0377 106.569C21.732 105.76 38.2397 95.7276 40.2267 96.8603C41.8164 97.7665 49.1429 98.5324 52.6075 98.8021C50.8242 97.5615 46.7075 94.789 44.5065 93.6239C41.7552 92.1676 38.5454 92.4912 37.0169 92.4912C35.7941 92.4912 27.6422 84.5082 23.7191 80.5167C27.2855 82.8361 34.9382 87.6367 37.0169 88.284C39.6153 89.0931 46.1878 89.2549 48.3277 89.2549C50.4676 89.2549 56.5815 96.0512 60.5556 97.6694C64.5297 99.2875 86.8456 91.5203 93.2652 91.5203C99.6849 91.5203 118.944 96.3748 130.255 97.6694C141.565 98.9639 171.218 90.5494 182.223 89.2549Z" fill="url(#paint2_radial_2912_100)"/>
<path d="M182.223 89.2549C193.228 87.9604 225.632 94.1094 240 100.582V120H204.081C203.623 114.822 184.975 104.789 181.307 103.171C177.638 101.553 136.522 106.569 133.771 107.378C131.019 108.188 96.0171 96.0512 93.2652 96.0512C90.5134 96.0512 57.0407 104.304 54.1365 104.789C51.2324 105.275 43.4371 103.333 40.2267 101.715C37.0163 100.097 22.3434 107.378 22.0377 106.569C21.732 105.76 38.2397 95.7276 40.2267 96.8603C41.8164 97.7665 49.1429 98.5324 52.6075 98.8021C50.8242 97.5615 46.7075 94.789 44.5065 93.6239C41.7552 92.1676 38.5454 92.4912 37.0169 92.4912C35.7941 92.4912 27.6422 84.5082 23.7191 80.5167C27.2855 82.8361 34.9382 87.6367 37.0169 88.284C39.6153 89.0931 46.1878 89.2549 48.3277 89.2549C50.4676 89.2549 56.5815 96.0512 60.5556 97.6694C64.5297 99.2875 86.8456 91.5203 93.2652 91.5203C99.6849 91.5203 118.944 96.3748 130.255 97.6694C141.565 98.9639 171.218 90.5494 182.223 89.2549Z" fill="url(#paint3_radial_2912_100)"/>
<path d="M182.223 89.2549C193.228 87.9604 225.632 94.1094 240 100.582V120H204.081C203.623 114.822 184.975 104.789 181.307 103.171C177.638 101.553 136.522 106.569 133.771 107.378C131.019 108.188 96.0171 96.0512 93.2652 96.0512C90.5134 96.0512 57.0407 104.304 54.1365 104.789C51.2324 105.275 43.4371 103.333 40.2267 101.715C37.0163 100.097 22.3434 107.378 22.0377 106.569C21.732 105.76 38.2397 95.7276 40.2267 96.8603C41.8164 97.7665 49.1429 98.5324 52.6075 98.8021C50.8242 97.5615 46.7075 94.789 44.5065 93.6239C41.7552 92.1676 38.5454 92.4912 37.0169 92.4912C35.7941 92.4912 27.6422 84.5082 23.7191 80.5167C27.2855 82.8361 34.9382 87.6367 37.0169 88.284C39.6153 89.0931 46.1878 89.2549 48.3277 89.2549C50.4676 89.2549 56.5815 96.0512 60.5556 97.6694C64.5297 99.2875 86.8456 91.5203 93.2652 91.5203C99.6849 91.5203 118.944 96.3748 130.255 97.6694C141.565 98.9639 171.218 90.5494 182.223 89.2549Z" fill="url(#paint4_radial_2912_100)"/>
<path d="M182.223 89.2549C193.228 87.9604 225.632 94.1094 240 100.582V120H204.081C203.623 114.822 184.975 104.789 181.307 103.171C177.638 101.553 136.522 106.569 133.771 107.378C131.019 108.188 96.0171 96.0512 93.2652 96.0512C90.5134 96.0512 57.0407 104.304 54.1365 104.789C51.2324 105.275 43.4371 103.333 40.2267 101.715C37.0163 100.097 22.3434 107.378 22.0377 106.569C21.732 105.76 38.2397 95.7276 40.2267 96.8603C41.8164 97.7665 49.1429 98.5324 52.6075 98.8021C50.8242 97.5615 46.7075 94.789 44.5065 93.6239C41.7552 92.1676 38.5454 92.4912 37.0169 92.4912C35.7941 92.4912 27.6422 84.5082 23.7191 80.5167C27.2855 82.8361 34.9382 87.6367 37.0169 88.284C39.6153 89.0931 46.1878 89.2549 48.3277 89.2549C50.4676 89.2549 56.5815 96.0512 60.5556 97.6694C64.5297 99.2875 86.8456 91.5203 93.2652 91.5203C99.6849 91.5203 118.944 96.3748 130.255 97.6694C141.565 98.9639 171.218 90.5494 182.223 89.2549Z" fill="url(#paint5_radial_2912_100)"/>
<path d="M128.52 92.9984C129.814 93.547 136.369 94.4874 139.733 93.547L141.285 94.9575C136.714 96.9166 129.469 95.8979 127.83 95.4277C126.192 94.9576 127.227 92.4499 128.52 92.9984Z" fill="url(#paint6_radial_2912_100)"/>
<path d="M131.452 98.7191C133.522 98.6407 142.234 98.0921 143.786 95.1926L141.458 94.4089C140.423 95.8979 132.574 95.9763 130.935 96.0546C129.296 96.133 129.382 98.7974 131.452 98.7191Z" fill="url(#paint7_radial_2912_100)"/>
<path d="M149.631 102.689C150.513 101.774 153.257 101.268 154.977 96.1328L156.989 96.4977C156.687 98.1632 155.358 101.936 153.655 103.419C151.953 104.902 148.748 103.604 149.631 102.689Z" fill="url(#paint8_radial_2912_100)"/>
<path d="M137.51 96.4063C138.992 96.5317 146.486 97.1021 150.812 94.5894L151.69 95.6803C149.422 96.9893 144.022 99.6227 140.571 99.6849C136.256 99.7627 136.027 96.2808 137.51 96.4063Z" fill="url(#paint9_radial_2912_100)"/>
<path d="M140.931 100.467C142.391 100.181 149.108 98.7272 152.58 95.1244L155.62 96.5358C153.798 98.4166 148.713 101.634 145.411 102.641C141.283 103.899 139.471 100.753 140.931 100.467Z" fill="url(#paint10_radial_2912_100)"/>
<path d="M128.096 24.5444C119.746 31.3713 121.937 47.1831 124.076 54.2356V61.9934L159.198 63.4745C159.387 60.3949 159.509 52.0494 158.493 43.3042C157.224 32.3728 138.534 16.0109 128.096 24.5444Z" fill="url(#paint11_radial_2912_100)"/>
<path d="M128.096 24.5444C119.746 31.3713 121.937 47.1831 124.076 54.2356V61.9934L159.198 63.4745C159.387 60.3949 159.509 52.0494 158.493 43.3042C157.224 32.3728 138.534 16.0109 128.096 24.5444Z" fill="url(#paint12_radial_2912_100)"/>
<path d="M148.267 96.7627C171.964 100.007 187.361 78.2432 178.874 68.1295C174.035 62.3626 165.714 51.8707 163.782 44.5739C156.269 60.3535 130.669 60.9882 123.546 51.961C114.236 71.4965 124.57 93.5185 148.267 96.7627Z" fill="url(#paint13_radial_2912_100)"/>
<path d="M148.267 96.7627C171.964 100.007 187.361 78.2432 178.874 68.1295C174.035 62.3626 165.714 51.8707 163.782 44.5739C156.269 60.3535 130.669 60.9882 123.546 51.961C114.236 71.4965 124.57 93.5185 148.267 96.7627Z" fill="url(#paint14_radial_2912_100)"/>
<path d="M124.392 41.206C128.846 29.8249 142.91 31.4851 147.844 36.6751C153.61 42.7403 152.772 47.5942 153.61 54.8958C155.193 68.6992 157.098 85.31 177.421 85.2763C181.702 79.4025 182.641 72.6185 178.874 68.1296C174.405 62.8038 172.105 53.8128 167.803 48.3823C168.367 37.6625 164.643 30.3809 157.575 24.5447C141.224 11.0439 117.518 22.6406 121.698 43.7982L124.392 41.206Z" fill="url(#paint15_radial_2912_100)"/>
<path d="M124.392 41.206C128.846 29.8249 142.91 31.4851 147.844 36.6751C153.61 42.7403 152.772 47.5942 153.61 54.8958C155.193 68.6992 157.098 85.31 177.421 85.2763C181.702 79.4025 182.641 72.6185 178.874 68.1296C174.405 62.8038 172.105 53.8128 167.803 48.3823C168.367 37.6625 164.643 30.3809 157.575 24.5447C141.224 11.0439 117.518 22.6406 121.698 43.7982L124.392 41.206Z" fill="url(#paint16_radial_2912_100)"/>
<path d="M145.732 53.0594C144.638 56.847 140.68 59.0305 136.893 57.9364C133.105 56.8423 130.921 52.8849 132.016 49.0972C133.11 45.3096 137.067 43.1261 140.855 44.2202C144.642 45.3143 146.826 49.2718 145.732 53.0594Z" fill="url(#paint17_radial_2912_100)"/>
<path d="M138.2 45.5927C137.67 47.4263 135.754 48.4833 133.921 47.9537C132.087 47.424 131.03 45.5082 131.56 43.6746C132.09 41.841 134.005 40.784 135.839 41.3137C137.673 41.8433 138.73 43.7591 138.2 45.5927Z" fill="url(#paint18_radial_2912_100)"/>
<path d="M138.2 45.5927C137.67 47.4263 135.754 48.4833 133.921 47.9537C132.087 47.424 131.03 45.5082 131.56 43.6746C132.09 41.841 134.005 40.784 135.839 41.3137C137.673 41.8433 138.73 43.7591 138.2 45.5927Z" fill="url(#paint19_radial_2912_100)"/>
<path d="M141.976 42.9393C139.637 43.475 134.482 38.1319 130.863 43.5464L131.307 44.0417C135.611 40.6419 138.256 46.1593 142.057 43.2932L141.976 42.9393Z" fill="#21252C"/>
<path d="M115.25 46.7218C115.137 45.9509 121.419 42.2119 123.347 41.3428C125.276 40.4737 126.807 46.7885 125.576 47.272C124.346 47.7555 115.391 47.6854 115.25 46.7218Z" fill="url(#paint20_radial_2912_100)"/>
<path d="M201.129 80.7165C197.895 81.5629 187.703 81.8186 180.425 61.902C178.216 55.8553 168.275 50.9785 159.881 51.8095C152.42 52.5483 145.641 55.1848 143.846 63.6007C142.05 72.0165 145.649 83.5288 161.898 88.8964C182.208 95.6058 195.971 88.6467 198.678 86.9547C201.384 85.2626 204.364 79.8701 201.129 80.7165Z" fill="url(#paint21_radial_2912_100)"/>
<path d="M201.129 80.7165C197.895 81.5629 187.703 81.8186 180.425 61.902C178.216 55.8553 168.275 50.9785 159.881 51.8095C152.42 52.5483 145.641 55.1848 143.846 63.6007C142.05 72.0165 145.649 83.5288 161.898 88.8964C182.208 95.6058 195.971 88.6467 198.678 86.9547C201.384 85.2626 204.364 79.8701 201.129 80.7165Z" fill="url(#paint22_radial_2912_100)"/>
<path d="M177.729 57.914C176.365 59.1494 168.344 62.5137 162.264 56.6392C160.589 55.0209 160.082 53.3188 160.281 51.7747C166.616 51.2856 173.74 53.9716 177.729 57.914Z" fill="url(#paint23_radial_2912_100)"/>
<path d="M157.925 78.4499C163.16 81.7742 169.922 80.4959 170.628 79.9081C170.747 79.8093 170.981 79.6385 171.307 79.4019C171.45 79.2975 171.611 79.1804 171.787 79.051C172.838 82.0051 175.368 84.6421 177.058 86.4033C178.136 87.5265 178.872 88.2935 178.664 88.5594C178.034 89.3677 163.741 91.3576 158.531 83.0596C157.449 81.3371 157.371 79.7809 157.925 78.4499Z" fill="url(#paint24_radial_2912_100)"/>
<path d="M157.925 78.4499C163.16 81.7742 169.922 80.4959 170.628 79.9081C170.747 79.8093 170.981 79.6385 171.307 79.4019C171.45 79.2975 171.611 79.1804 171.787 79.051C172.838 82.0051 175.368 84.6421 177.058 86.4033C178.136 87.5265 178.872 88.2935 178.664 88.5594C178.034 89.3677 163.741 91.3576 158.531 83.0596C157.449 81.3371 157.371 79.7809 157.925 78.4499Z" fill="url(#paint25_radial_2912_100)"/>
<path d="M166.983 76.1355C173.635 79.4997 181.622 78.0094 182.26 77.3004C182.297 77.2595 182.33 77.2002 182.36 77.1237C183.823 78.5909 185.402 79.8251 186.64 80.7931C188.068 81.9097 189.043 82.6722 188.866 83.03C188.328 84.1172 176.316 88.3797 168.828 79.5749C167.831 78.4018 167.245 77.2441 166.983 76.1355Z" fill="url(#paint26_radial_2912_100)"/>
<path d="M166.983 76.1355C173.635 79.4997 181.622 78.0094 182.26 77.3004C182.297 77.2595 182.33 77.2002 182.36 77.1237C183.823 78.5909 185.402 79.8251 186.64 80.7931C188.068 81.9097 189.043 82.6722 188.866 83.03C188.328 84.1172 176.316 88.3797 168.828 79.5749C167.831 78.4018 167.245 77.2441 166.983 76.1355Z" fill="url(#paint27_radial_2912_100)"/>
<path d="M172.458 82.7156C171.481 84.9749 171.758 87.9377 175.221 89.3757C182.447 92.3762 188.104 86.0989 188.068 85.2772C188.056 85.0069 187.239 84.8479 186.042 84.615C185.85 84.5776 185.647 84.5382 185.437 84.4961C182.133 85.2842 176.993 85.5168 172.458 82.7156Z" fill="url(#paint28_radial_2912_100)"/>
<path d="M172.458 82.7156C171.481 84.9749 171.758 87.9377 175.221 89.3757C182.447 92.3762 188.104 86.0989 188.068 85.2772C188.056 85.0069 187.239 84.8479 186.042 84.615C185.85 84.5776 185.647 84.5382 185.437 84.4961C182.133 85.2842 176.993 85.5168 172.458 82.7156Z" fill="url(#paint29_radial_2912_100)"/>
<path d="M184.031 69.8672C181.317 70.2321 177.556 70.0533 174.145 68.056C173.67 69.5259 173.85 71.2797 175.173 73.1724C179.919 79.962 188.192 78.4015 190.005 77.4406C188.029 75.7583 185.989 73.3313 184.031 69.8672Z" fill="url(#paint30_radial_2912_100)"/>
<path d="M184.031 69.8672C181.317 70.2321 177.556 70.0533 174.145 68.056C173.67 69.5259 173.85 71.2797 175.173 73.1724C179.919 79.962 188.192 78.4015 190.005 77.4406C188.029 75.7583 185.989 73.3313 184.031 69.8672Z" fill="url(#paint31_radial_2912_100)"/>
<path d="M179.844 77.1431C182.975 78.6005 186.297 78.4468 188.351 77.9898C190.022 79.1226 191.982 79.8383 193.392 80.353C194.537 80.7711 195.319 81.0567 195.288 81.3256C195.194 82.1427 188.62 87.4519 181.956 83.3522C179.155 81.6287 178.959 79.1324 179.844 77.1431Z" fill="url(#paint32_radial_2912_100)"/>
<path d="M179.844 77.1431C182.975 78.6005 186.297 78.4468 188.351 77.9898C190.022 79.1226 191.982 79.8383 193.392 80.353C194.537 80.7711 195.319 81.0567 195.288 81.3256C195.194 82.1427 188.62 87.4519 181.956 83.3522C179.155 81.6287 178.959 79.1324 179.844 77.1431Z" fill="url(#paint33_radial_2912_100)"/>
<path d="M159.289 64.3976C164.846 67.9414 171.71 67.2373 172.267 66.6182C172.435 66.4318 173.263 66.0852 174.455 65.5862C174.525 65.557 174.596 65.5272 174.669 65.4968C175.956 68.9768 178.582 72.16 180.395 74.3582C181.678 75.9135 182.554 76.9756 182.261 77.3007C181.372 78.2888 166.208 80.7947 160.277 69.5605C159.273 67.6585 159.019 65.9259 159.289 64.3976Z" fill="url(#paint34_radial_2912_100)"/>
<path d="M159.289 64.3976C164.846 67.9414 171.71 67.2373 172.267 66.6182C172.435 66.4318 173.263 66.0852 174.455 65.5862C174.525 65.557 174.596 65.5272 174.669 65.4968C175.956 68.9768 178.582 72.16 180.395 74.3582C181.678 75.9135 182.554 76.9756 182.261 77.3007C181.372 78.2888 166.208 80.7947 160.277 69.5605C159.273 67.6585 159.019 65.9259 159.289 64.3976Z" fill="url(#paint35_radial_2912_100)"/>
<path d="M177.729 57.914C176.792 58.7628 172.713 60.6163 168.279 59.7885C168.288 61.1027 168.741 62.5421 169.816 64.0515C173.895 69.7763 180.075 70.3992 184.03 69.8673C182.782 67.659 181.568 65.0293 180.425 61.9023C179.909 60.4897 178.971 59.141 177.729 57.914Z" fill="url(#paint36_radial_2912_100)"/>
<path d="M177.729 57.914C176.792 58.7628 172.713 60.6163 168.279 59.7885C168.288 61.1027 168.741 62.5421 169.816 64.0515C173.895 69.7763 180.075 70.3992 184.03 69.8673C182.782 67.659 181.568 65.0293 180.425 61.9023C179.909 60.4897 178.971 59.141 177.729 57.914Z" fill="url(#paint37_radial_2912_100)"/>
<path d="M160.593 70.1325C158.349 69.799 155.034 68.781 152.284 66.498C152.01 67.7595 152.057 69.2308 152.542 70.9192C156.024 83.0357 169.612 80.7555 170.629 79.9086C170.952 79.6396 170.401 78.8559 169.566 77.6672C169.428 77.4717 169.283 77.2652 169.133 77.0482C165.881 75.9076 162.724 73.8043 160.593 70.1325Z" fill="url(#paint38_radial_2912_100)"/>
<path d="M160.593 70.1325C158.349 69.799 155.034 68.781 152.284 66.498C152.01 67.7595 152.057 69.2308 152.542 70.9192C156.024 83.0357 169.612 80.7555 170.629 79.9086C170.952 79.6396 170.401 78.8559 169.566 77.6672C169.428 77.4717 169.283 77.2652 169.133 77.0482C165.881 75.9076 162.724 73.8043 160.593 70.1325Z" fill="url(#paint39_radial_2912_100)"/>
<path d="M160.281 51.7747C160.147 51.785 160.014 51.7967 159.882 51.8098C157.844 52.0116 155.856 52.355 154.008 52.9192C153.114 54.4839 152.984 56.514 154.268 58.9456C159.282 68.4437 171.515 67.4535 172.267 66.6182C172.514 66.3433 171.774 65.4453 170.689 64.1303C169.683 62.911 168.382 61.3332 167.298 59.5613C165.59 59.0869 163.86 58.1814 162.264 56.6391C160.589 55.0208 160.082 53.3188 160.281 51.7747Z" fill="url(#paint40_radial_2912_100)"/>
<path d="M160.281 51.7747C160.147 51.785 160.014 51.7967 159.882 51.8098C157.844 52.0116 155.856 52.355 154.008 52.9192C153.114 54.4839 152.984 56.514 154.268 58.9456C159.282 68.4437 171.515 67.4535 172.267 66.6182C172.514 66.3433 171.774 65.4453 170.689 64.1303C169.683 62.911 168.382 61.3332 167.298 59.5613C165.59 59.0869 163.86 58.1814 162.264 56.6391C160.589 55.0208 160.082 53.3188 160.281 51.7747Z" fill="url(#paint41_radial_2912_100)"/>
<path d="M154.981 52.6449C154.653 52.7298 154.328 52.8209 154.008 52.9187C153.114 54.4835 152.985 56.5136 154.268 58.9451C155.893 62.0231 158.276 63.9996 160.781 65.2369C160.781 65.2369 160.781 65.237 160.781 65.2369C160.277 64.9879 159.778 64.7091 159.288 64.3972C159.019 65.9255 159.272 67.6581 160.276 69.5601C160.379 69.7549 160.485 69.9456 160.593 70.1322C156.906 69.5842 150.326 67.1881 148.112 60.3685C147.537 58.5971 147.629 57.1482 148.145 56.0031C150.046 54.3654 152.399 53.3128 154.981 52.6449C154.981 52.6449 154.981 52.6449 154.981 52.6449Z" fill="url(#paint42_radial_2912_100)"/>
<path d="M154.981 52.6449C154.653 52.7298 154.328 52.8209 154.008 52.9187C153.114 54.4835 152.985 56.5136 154.268 58.9451C155.893 62.0231 158.276 63.9996 160.781 65.2369C160.781 65.2369 160.781 65.237 160.781 65.2369C160.277 64.9879 159.778 64.7091 159.288 64.3972C159.019 65.9255 159.272 67.6581 160.276 69.5601C160.379 69.7549 160.485 69.9456 160.593 70.1322C156.906 69.5842 150.326 67.1881 148.112 60.3685C147.537 58.5971 147.629 57.1482 148.145 56.0031C150.046 54.3654 152.399 53.3128 154.981 52.6449C154.981 52.6449 154.981 52.6449 154.981 52.6449Z" fill="url(#paint43_radial_2912_100)"/>
<path fill-rule="evenodd" clip-rule="evenodd" d="M147.77 57.3092C147.387 57.3708 146.997 57.4619 146.608 57.583C145.33 59.1559 144.373 61.1291 143.845 63.6007C143.539 65.0379 143.389 66.5653 143.433 68.137C146.1 71.742 151.231 71.1378 153.071 70.3599C153.32 70.2544 153.048 69.5781 152.636 68.5543C152.35 67.8424 151.996 66.9624 151.703 65.9896C150.181 64.5793 148.882 62.7418 148.112 60.3686C147.737 59.2134 147.645 58.1953 147.77 57.3092Z" fill="url(#paint44_radial_2912_100)"/>
<path fill-rule="evenodd" clip-rule="evenodd" d="M147.77 57.3092C147.387 57.3708 146.997 57.4619 146.608 57.583C145.33 59.1559 144.373 61.1291 143.845 63.6007C143.539 65.0379 143.389 66.5653 143.433 68.137C146.1 71.742 151.231 71.1378 153.071 70.3599C153.32 70.2544 153.048 69.5781 152.636 68.5543C152.35 67.8424 151.996 66.9624 151.703 65.9896C150.181 64.5793 148.882 62.7418 148.112 60.3686C147.737 59.2134 147.645 58.1953 147.77 57.3092Z" fill="url(#paint45_radial_2912_100)"/>
<path d="M96.6484 88.9392C95.5666 89.444 90.0859 90.3094 87.2734 89.444L85.975 90.7421C89.7971 92.5449 95.8551 91.6075 97.2253 91.1748C98.5955 90.7421 97.7301 88.4344 96.6484 88.9392Z" fill="url(#paint46_radial_2912_100)"/>
<path d="M94.1964 94.2034C92.4656 94.1313 85.1819 93.6265 83.8838 90.9582L85.8303 90.2371C86.6957 91.6073 93.2587 91.6794 94.6289 91.7515C95.9991 91.8236 95.9272 94.2756 94.1964 94.2034Z" fill="url(#paint47_radial_2912_100)"/>
<path d="M77.9706 100.55C77.2494 99.4678 74.5811 98.4582 73.7879 92.9774H71.6962C71.6962 94.7082 72.3456 98.7466 73.7879 100.55C75.2302 102.352 78.6917 101.631 77.9706 100.55Z" fill="url(#paint48_radial_2912_100)"/>
<path d="M91.3121 96.4389C89.7977 96.2947 82.1535 95.5014 78.2593 92.1841L77.1769 93.1216C79.2204 94.8523 84.1727 98.487 87.6342 99.1793C91.9612 100.045 92.8265 96.5831 91.3121 96.4389Z" fill="url(#paint49_radial_2912_100)"/>
<path d="M87.1289 99.9007C85.7121 99.3466 79.2186 96.6588 76.3834 92.4006L73.0667 93.266C74.5572 95.4908 79.0856 99.6558 82.2246 101.271C86.1483 103.29 88.5457 100.455 87.1289 99.9007Z" fill="url(#paint50_radial_2912_100)"/>
<path d="M98.3793 19.42C106.918 26.4008 104.677 42.569 102.49 49.7806V57.7132L66.576 59.2277C66.3837 56.0786 66.2587 47.545 67.2971 38.6027C68.5952 27.4248 87.7062 10.6941 98.3793 19.42Z" fill="url(#paint51_radial_2912_100)"/>
<path d="M98.3793 19.42C106.918 26.4008 104.677 42.569 102.49 49.7806V57.7132L66.576 59.2277C66.3837 56.0786 66.2587 47.545 67.2971 38.6027C68.5952 27.4248 87.7062 10.6941 98.3793 19.42Z" fill="url(#paint52_radial_2912_100)"/>
<path d="M77.7537 93.266C53.523 96.5833 37.7788 74.3289 46.4564 63.9873C51.4044 58.0904 59.9135 47.362 61.8885 39.9006C69.2443 50.2852 90.1577 58.7948 102.634 49.3478C109.268 68.4583 101.984 89.9487 77.7537 93.266Z" fill="url(#paint53_radial_2912_100)"/>
<path d="M77.7537 93.266C53.523 96.5833 37.7788 74.3289 46.4564 63.9873C51.4044 58.0904 59.9135 47.362 61.8885 39.9006C69.2443 50.2852 90.1577 58.7948 102.634 49.3478C109.268 68.4583 101.984 89.9487 77.7537 93.266Z" fill="url(#paint54_radial_2912_100)"/>
<path d="M103.211 44.444C102.229 25.7306 84.0827 25.6219 78.1866 31.8238C72.2906 38.0257 73.1469 42.9891 72.2906 50.4552C70.6719 64.5698 68.7241 81.5551 47.9424 81.5206C43.565 75.5144 42.6054 68.5775 46.457 63.9874C51.0266 58.5415 53.3789 49.3478 57.778 43.795C57.201 32.8334 61.0084 25.3877 68.2361 19.42C84.956 5.61479 109.196 17.4729 104.922 39.1075C104.299 41.4246 103.079 41.935 103.211 44.444Z" fill="url(#paint55_radial_2912_100)"/>
<path d="M103.211 44.444C102.229 25.7306 84.0827 25.6219 78.1866 31.8238C72.2906 38.0257 73.1469 42.9891 72.2906 50.4552C70.6719 64.5698 68.7241 81.5551 47.9424 81.5206C43.565 75.5144 42.6054 68.5775 46.457 63.9874C51.0266 58.5415 53.3789 49.3478 57.778 43.795C57.201 32.8334 61.0084 25.3877 68.2361 19.42C84.956 5.61479 109.196 17.4729 104.922 39.1075C104.299 41.4246 103.079 41.935 103.211 44.444Z" fill="url(#paint56_radial_2912_100)"/>
<path d="M21.3594 66.1504C24.3883 67.7369 34.4847 70.3332 46.3116 52.1601C49.9022 46.6428 60.9275 44.0673 69.1 46.8236C76.3652 49.274 82.5132 53.4582 82.369 62.2563C82.2248 71.0543 75.994 81.6984 58.5709 83.3138C36.7921 85.333 24.677 75.2371 22.3693 72.9294C20.0616 70.6217 18.3306 64.5639 21.3594 66.1504Z" fill="url(#paint57_radial_2912_100)"/>
<path d="M21.3594 66.1504C24.3883 67.7369 34.4847 70.3332 46.3116 52.1601C49.9022 46.6428 60.9275 44.0673 69.1 46.8236C76.3652 49.274 82.5132 53.4582 82.369 62.2563C82.2248 71.0543 75.994 81.6984 58.5709 83.3138C36.7921 85.333 24.677 75.2371 22.3693 72.9294C20.0616 70.6217 18.3306 64.5639 21.3594 66.1504Z" fill="url(#paint58_radial_2912_100)"/>
<path d="M77.524 46.2856C77.524 50.317 80.792 53.585 84.8234 53.585C88.8548 53.585 92.1228 50.317 92.1228 46.2856C92.1228 42.2543 88.8548 38.9862 84.8234 38.9862C80.792 38.9862 77.524 42.2543 77.524 46.2856Z" fill="url(#paint59_radial_2912_100)"/>
<path d="M86.9125 39.3237C86.9125 41.2753 88.4946 42.8573 90.4461 42.8573C92.3977 42.8573 93.9798 41.2753 93.9798 39.3237C93.9798 37.3721 92.3977 35.79 90.4461 35.79C88.4946 35.79 86.9125 37.3721 86.9125 39.3237Z" fill="url(#paint60_radial_2912_100)"/>
<path d="M86.9125 39.3237C86.9125 41.2753 88.4946 42.8573 90.4461 42.8573C92.3977 42.8573 93.9798 41.2753 93.9798 39.3237C93.9798 37.3721 92.3977 35.79 90.4461 35.79C88.4946 35.79 86.9125 37.3721 86.9125 39.3237Z" fill="url(#paint61_radial_2912_100)"/>
<path d="M83.9558 35.6456C86.1012 36.8355 92.6817 33.0495 94.7009 39.3957L94.124 39.7563C90.8608 35.195 86.6961 39.8644 83.7755 35.9701L83.9558 35.6456Z" fill="#21252C"/>
<path d="M109.138 46.5003C109.468 45.7751 104.358 40.3193 102.71 38.9183C101.062 37.5172 97.7661 43.2863 98.8375 44.1104C99.9088 44.9346 108.726 47.4068 109.138 46.5003Z" fill="url(#paint62_radial_2912_100)"/>
<path d="M49.914 48.8055C50.9894 50.3499 58.2091 55.5449 65.6166 51.0883C67.6572 49.8606 68.5533 48.2811 68.7101 46.6969C62.5102 44.7541 54.7949 45.7939 49.914 48.8055Z" fill="url(#paint63_radial_2912_100)"/>
<path d="M64.9291 73.8181C58.9489 75.9278 52.5053 73.1007 51.9368 72.3528C51.8413 72.227 51.6467 72.003 51.377 71.6925C51.2581 71.5556 51.1247 71.4019 50.9786 71.2324C49.2533 73.9345 46.1263 75.9808 44.0378 77.3474C42.7059 78.2189 41.7964 78.8141 41.942 79.1268C42.3845 80.077 56.1688 85.3433 63.2668 78.2722C64.7402 76.8043 65.1756 75.2717 64.9291 73.8181Z" fill="url(#paint64_radial_2912_100)"/>
<path d="M64.9291 73.8181C58.9489 75.9278 52.5053 73.1007 51.9368 72.3528C51.8413 72.227 51.6467 72.003 51.377 71.6925C51.2581 71.5556 51.1247 71.4019 50.9786 71.2324C49.2533 73.9345 46.1263 75.9808 44.0378 77.3474C42.7059 78.2189 41.7964 78.8141 41.942 79.1268C42.3845 80.077 56.1688 85.3433 63.2668 78.2722C64.7402 76.8043 65.1756 75.2717 64.9291 73.8181Z" fill="url(#paint65_radial_2912_100)"/>
<path d="M56.4359 69.4304C49.0344 71.2542 41.4185 67.9343 40.9455 67.0813C40.9182 67.0321 40.8987 66.9653 40.8869 66.8823C39.092 68.0081 37.2357 68.8752 35.7796 69.5553C34.1001 70.3398 32.9531 70.8755 33.0473 71.2727C33.3335 72.4795 44.3236 79.4865 53.8065 72.4334C55.07 71.4937 55.9194 70.4746 56.4359 69.4304Z" fill="url(#paint66_radial_2912_100)"/>
<path d="M56.4359 69.4304C49.0344 71.2542 41.4185 67.9343 40.9455 67.0813C40.9182 67.0321 40.8987 66.9653 40.8869 66.8823C39.092 68.0081 37.2357 68.8752 35.7796 69.5553C34.1001 70.3398 32.9531 70.8755 33.0473 71.2727C33.3335 72.4795 44.3236 79.4865 53.8065 72.4334C55.07 71.4937 55.9194 70.4746 56.4359 69.4304Z" fill="url(#paint67_radial_2912_100)"/>
<path d="M49.4681 74.7293C49.9225 77.2049 48.9664 80.0935 45.1852 80.7307C37.296 82.0603 33.1013 74.506 33.326 73.6956C33.3999 73.4289 34.2506 73.4582 35.4964 73.5011C35.697 73.508 35.9078 73.5153 36.1272 73.5217C39.2381 75.066 44.3061 76.4786 49.4681 74.7293Z" fill="url(#paint68_radial_2912_100)"/>
<path d="M49.4681 74.7293C49.9225 77.2049 48.9664 80.0935 45.1852 80.7307C37.296 82.0603 33.1013 74.506 33.326 73.6956C33.3999 73.4289 34.2506 73.4582 35.4964 73.5011C35.697 73.508 35.9078 73.5153 36.1272 73.5217C39.2381 75.066 44.3061 76.4786 49.4681 74.7293Z" fill="url(#paint69_radial_2912_100)"/>
<path d="M40.8895 59.2686C43.5098 60.2556 47.2984 60.9415 51.156 59.735C51.2916 61.3088 50.7092 63.0149 48.9561 64.5968C42.6673 70.2716 34.7825 66.8162 33.1966 65.4422C35.5519 64.2198 38.1428 62.2704 40.8895 59.2686Z" fill="url(#paint70_radial_2912_100)"/>
<path d="M40.8895 59.2686C43.5098 60.2556 47.2984 60.9415 51.156 59.735C51.2916 61.3088 50.7092 63.0149 48.9561 64.5968C42.6673 70.2716 34.7825 66.8162 33.1966 65.4422C35.5519 64.2198 38.1428 62.2704 40.8895 59.2686Z" fill="url(#paint71_radial_2912_100)"/>
<path d="M43.3895 67.4798C39.935 68.2127 36.6601 67.2963 34.7185 66.3691C32.7931 67.1139 30.676 67.3768 29.1532 67.5658C27.9161 67.7194 27.0714 67.8243 27.0403 68.0993C26.9459 68.935 32.2766 75.7354 39.8585 73.1814C43.046 72.1077 43.8144 69.6654 43.3895 67.4798Z" fill="url(#paint72_radial_2912_100)"/>
<path d="M43.3895 67.4798C39.935 68.2127 36.6601 67.2963 34.7185 66.3691C32.7931 67.1139 30.676 67.3768 29.1532 67.5658C27.9161 67.7194 27.0714 67.8243 27.0403 68.0993C26.9459 68.935 32.2766 75.7354 39.8585 73.1814C43.046 72.1077 43.8144 69.6654 43.3895 67.4798Z" fill="url(#paint73_radial_2912_100)"/>
<path d="M66.7991 59.5026C60.4474 61.757 53.77 59.4785 53.357 58.7336C53.2327 58.5094 52.4871 57.9737 51.414 57.2027C51.3511 57.1575 51.287 57.1114 51.2218 57.0646C49.1396 60.2363 45.792 62.8048 43.4804 64.5785C41.8448 65.8335 40.7278 66.6905 40.9447 67.0817C41.6038 68.2705 56.138 74.2512 64.6285 64.42C66.066 62.7555 66.7162 61.0873 66.7991 59.5026Z" fill="url(#paint74_radial_2912_100)"/>
<path d="M66.7991 59.5026C60.4474 61.757 53.77 59.4785 53.357 58.7336C53.2327 58.5094 52.4871 57.9737 51.414 57.2027C51.3511 57.1575 51.287 57.1114 51.2218 57.0646C49.1396 60.2363 45.792 62.8048 43.4804 64.5785C41.8448 65.8335 40.7278 66.6905 40.9447 67.0817C41.6038 68.2705 56.138 74.2512 64.6285 64.42C66.066 62.7555 66.7162 61.0873 66.7991 59.5026Z" fill="url(#paint75_radial_2912_100)"/>
<path d="M49.914 48.8057C50.6529 49.8667 54.2917 52.6507 58.8991 52.8444C58.5881 54.1517 57.8067 55.482 56.3884 56.739C51.0092 61.5061 44.7084 60.707 40.8896 59.2683C42.6405 57.3547 44.4547 55.0135 46.3116 52.1602C47.1504 50.8714 48.3949 49.743 49.914 48.8057Z" fill="url(#paint76_radial_2912_100)"/>
<path d="M49.914 48.8057C50.6529 49.8667 54.2917 52.6507 58.8991 52.8444C58.5881 54.1517 57.8067 55.482 56.3884 56.739C51.0092 61.5061 44.7084 60.707 40.8896 59.2683C42.6405 57.3547 44.4547 55.0135 46.3116 52.1602C47.1504 50.8714 48.3949 49.743 49.914 48.8057Z" fill="url(#paint77_radial_2912_100)"/>
<path d="M64.1815 64.9174C66.4941 65.1006 70.0312 64.8479 73.2962 63.2051C73.2789 64.5248 72.8943 65.9801 72.023 67.5509C65.7696 78.8239 52.7552 73.4304 51.9362 72.3529C51.6761 72.0106 52.405 71.3562 53.5106 70.3638C53.6924 70.2005 53.8845 70.0281 54.084 69.8464C57.5858 69.4568 61.2152 68.0866 64.1815 64.9174Z" fill="url(#paint78_radial_2912_100)"/>
<path d="M64.1815 64.9174C66.4941 65.1006 70.0312 64.8479 73.2962 63.2051C73.2789 64.5248 72.8943 65.9801 72.023 67.5509C65.7696 78.8239 52.7552 73.4304 51.9362 72.3529C51.6761 72.0106 52.405 71.3562 53.5106 70.3638C53.6924 70.2005 53.8845 70.0281 54.084 69.8464C57.5858 69.4568 61.2152 68.0866 64.1815 64.9174Z" fill="url(#paint79_radial_2912_100)"/>
<path d="M68.7101 46.6975C68.8406 46.7384 68.9703 46.7806 69.0994 46.8241C71.084 47.4934 72.9852 48.2922 74.6975 49.2789C75.2286 51.0434 74.8915 53.096 73.0538 55.2239C65.8753 63.5358 53.9139 59.7389 53.3567 58.7338C53.1733 58.4031 54.1177 57.6785 55.5005 56.6175C56.7828 55.6336 58.442 54.3605 59.9289 52.8438C61.74 52.7636 63.6718 52.2588 65.6166 51.0888C67.6571 49.8611 68.5532 48.2817 68.7101 46.6975Z" fill="url(#paint80_radial_2912_100)"/>
<path d="M68.7101 46.6975C68.8406 46.7384 68.9703 46.7806 69.0994 46.8241C71.084 47.4934 72.9852 48.2922 74.6975 49.2789C75.2286 51.0434 74.8915 53.096 73.0538 55.2239C65.8753 63.5358 53.9139 59.7389 53.3567 58.7338C53.1733 58.4031 54.1177 57.6785 55.5005 56.6175C56.7828 55.6336 58.442 54.3605 59.9289 52.8438C61.74 52.7636 63.6718 52.2588 65.6166 51.0888C67.6571 49.8611 68.5532 48.2817 68.7101 46.6975Z" fill="url(#paint81_radial_2912_100)"/>
<path d="M73.7907 48.782C74.0983 48.942 74.4008 49.1074 74.6976 49.2785C75.2287 51.0429 74.8915 53.0955 73.0538 55.2234C70.7276 57.9169 67.8991 59.3389 65.1191 59.9963C65.1192 59.9963 65.1191 59.9964 65.1191 59.9963C65.6787 59.864 66.2401 59.7009 66.7991 59.5025C66.7162 61.0872 66.066 62.7554 64.6285 64.4198C64.4813 64.5903 64.3323 64.756 64.1815 64.9171C67.9815 65.2182 75.0878 64.3423 78.8606 58.0559C79.8406 56.423 80.0816 54.9582 79.8307 53.6987C78.3125 51.6301 76.2099 50.0407 73.7907 48.782C73.7906 48.782 73.7908 48.782 73.7907 48.782Z" fill="url(#paint82_radial_2912_100)"/>
<path d="M73.7907 48.782C74.0983 48.942 74.4008 49.1074 74.6976 49.2785C75.2287 51.0429 74.8915 53.0955 73.0538 55.2234C70.7276 57.9169 67.8991 59.3389 65.1191 59.9963C65.1192 59.9963 65.1191 59.9964 65.1191 59.9963C65.6787 59.864 66.2401 59.7009 66.7991 59.5025C66.7162 61.0872 66.066 62.7554 64.6285 64.4198C64.4813 64.5903 64.3323 64.756 64.1815 64.9171C67.9815 65.2182 75.0878 64.3423 78.8606 58.0559C79.8406 56.423 80.0816 54.9582 79.8307 53.6987C78.3125 51.6301 76.2099 50.0407 73.7907 48.782C73.7906 48.782 73.7908 48.782 73.7907 48.782Z" fill="url(#paint83_radial_2912_100)"/>
<path fill-rule="evenodd" clip-rule="evenodd" d="M79.9036 55.0859C80.271 55.2352 80.6393 55.4159 80.999 55.6258C81.911 57.4867 82.4113 59.6726 82.369 62.2565C82.3444 63.7588 82.1423 65.315 81.7373 66.8708C78.2525 69.8507 73.278 68.0696 71.624 66.8719C71.3997 66.7095 71.8261 66.0981 72.4714 65.1726C72.9202 64.529 73.4748 63.7336 73.9903 62.8317C75.8309 61.7761 77.5476 60.2436 78.8606 58.0559C79.4997 56.991 79.8245 55.9975 79.9036 55.0859Z" fill="url(#paint84_radial_2912_100)"/>
<path fill-rule="evenodd" clip-rule="evenodd" d="M79.9036 55.0859C80.271 55.2352 80.6393 55.4159 80.999 55.6258C81.911 57.4867 82.4113 59.6726 82.369 62.2565C82.3444 63.7588 82.1423 65.315 81.7373 66.8708C78.2525 69.8507 73.278 68.0696 71.624 66.8719C71.3997 66.7095 71.8261 66.0981 72.4714 65.1726C72.9202 64.529 73.4748 63.7336 73.9903 62.8317C75.8309 61.7761 77.5476 60.2436 78.8606 58.0559C79.4997 56.991 79.8245 55.9975 79.9036 55.0859Z" fill="url(#paint85_radial_2912_100)"/>
<path fill-rule="evenodd" clip-rule="evenodd" d="M202.009 30.8228C202.999 30.0221 205.63 28.5441 208.331 28.2508C212.872 27.7573 216.412 31.9913 217.056 36.1884C217.7 40.3856 215.344 45.2577 209.243 48.388C207.867 49.0939 198.56 54.6133 198.56 54.6133C198.56 54.6133 191.854 47.3047 190.07 45.5985C185.113 40.8594 184.244 35.5181 186.057 31.6784C187.87 27.8387 192.47 24.789 196.683 26.5561C199.187 27.6067 201.289 29.7733 202.009 30.8228Z" fill="#ED3737"/>
<path fill-rule="evenodd" clip-rule="evenodd" d="M202.009 30.8228C202.999 30.0221 205.63 28.5441 208.331 28.2508C212.872 27.7573 216.412 31.9913 217.056 36.1884C217.7 40.3856 215.344 45.2577 209.243 48.388C207.867 49.0939 198.56 54.6133 198.56 54.6133C198.56 54.6133 191.854 47.3047 190.07 45.5985C185.113 40.8594 184.244 35.5181 186.057 31.6784C187.87 27.8387 192.47 24.789 196.683 26.5561C199.187 27.6067 201.289 29.7733 202.009 30.8228Z" fill="url(#paint86_radial_2912_100)"/>
<path fill-rule="evenodd" clip-rule="evenodd" d="M202.009 30.8228C202.999 30.0221 205.63 28.5441 208.331 28.2508C212.872 27.7573 216.412 31.9913 217.056 36.1884C217.7 40.3856 215.344 45.2577 209.243 48.388C207.867 49.0939 198.56 54.6133 198.56 54.6133C198.56 54.6133 191.854 47.3047 190.07 45.5985C185.113 40.8594 184.244 35.5181 186.057 31.6784C187.87 27.8387 192.47 24.789 196.683 26.5561C199.187 27.6067 201.289 29.7733 202.009 30.8228Z" fill="url(#paint87_radial_2912_100)"/>
<path fill-rule="evenodd" clip-rule="evenodd" d="M202.009 30.8228C202.999 30.0221 205.63 28.5441 208.331 28.2508C212.872 27.7573 216.412 31.9913 217.056 36.1884C217.7 40.3856 215.344 45.2577 209.243 48.388C207.867 49.0939 198.56 54.6133 198.56 54.6133C198.56 54.6133 191.854 47.3047 190.07 45.5985C185.113 40.8594 184.244 35.5181 186.057 31.6784C187.87 27.8387 192.47 24.789 196.683 26.5561C199.187 27.6067 201.289 29.7733 202.009 30.8228Z" fill="url(#paint88_radial_2912_100)"/>
<path fill-rule="evenodd" clip-rule="evenodd" d="M202.009 30.8228C202.999 30.0221 205.63 28.5441 208.331 28.2508C212.872 27.7573 216.412 31.9913 217.056 36.1884C217.7 40.3856 215.344 45.2577 209.243 48.388C207.867 49.0939 198.56 54.6133 198.56 54.6133C198.56 54.6133 191.854 47.3047 190.07 45.5985C185.113 40.8594 184.244 35.5181 186.057 31.6784C187.87 27.8387 192.47 24.789 196.683 26.5561C199.187 27.6067 201.289 29.7733 202.009 30.8228Z" fill="url(#paint89_radial_2912_100)"/>
<path d="M200.434 33.142C199.96 36.4012 194.433 43.6389 191.443 43.2039C188.453 42.769 185.012 38.6343 186.723 34.1394C188.435 29.6444 190.798 28.2351 193.684 27.8C196.57 27.3649 200.908 29.8827 200.434 33.142Z" fill="url(#paint90_radial_2912_100)"/>
<path d="M214.558 35.1968C214.084 38.4561 208.557 45.6938 205.567 45.2588C202.578 44.8239 200.635 40.3523 201.828 32.148C201.828 32.148 204.923 30.2899 207.808 29.8548C210.694 29.4197 215.032 31.9376 214.558 35.1968Z" fill="url(#paint91_radial_2912_100)"/>
<path fill-rule="evenodd" clip-rule="evenodd" d="M21.1611 42.1318C21.6522 41.7344 22.9585 41.0009 24.2986 40.8553C26.5528 40.6103 28.3097 42.7118 28.6294 44.7949C28.949 46.8781 27.7797 49.2963 24.7515 50.8499C24.0687 51.2003 19.4492 53.9397 19.4492 53.9397C19.4492 53.9397 16.1209 50.3122 15.2353 49.4654C12.7753 47.1133 12.3436 44.4622 13.2435 42.5565C14.1435 40.6508 16.4264 39.1371 18.5174 40.0142C19.7604 40.5356 20.8035 41.611 21.1611 42.1318Z" fill="#ED3737"/>
<path fill-rule="evenodd" clip-rule="evenodd" d="M21.1611 42.1318C21.6522 41.7344 22.9585 41.0009 24.2986 40.8553C26.5528 40.6103 28.3097 42.7118 28.6294 44.7949C28.949 46.8781 27.7797 49.2963 24.7515 50.8499C24.0687 51.2003 19.4492 53.9397 19.4492 53.9397C19.4492 53.9397 16.1209 50.3122 15.2353 49.4654C12.7753 47.1133 12.3436 44.4622 13.2435 42.5565C14.1435 40.6508 16.4264 39.1371 18.5174 40.0142C19.7604 40.5356 20.8035 41.611 21.1611 42.1318Z" fill="url(#paint92_radial_2912_100)"/>
<path fill-rule="evenodd" clip-rule="evenodd" d="M21.1611 42.1318C21.6522 41.7344 22.9585 41.0009 24.2986 40.8553C26.5528 40.6103 28.3097 42.7118 28.6294 44.7949C28.949 46.8781 27.7797 49.2963 24.7515 50.8499C24.0687 51.2003 19.4492 53.9397 19.4492 53.9397C19.4492 53.9397 16.1209 50.3122 15.2353 49.4654C12.7753 47.1133 12.3436 44.4622 13.2435 42.5565C14.1435 40.6508 16.4264 39.1371 18.5174 40.0142C19.7604 40.5356 20.8035 41.611 21.1611 42.1318Z" fill="url(#paint93_radial_2912_100)"/>
<path fill-rule="evenodd" clip-rule="evenodd" d="M21.1611 42.1318C21.6522 41.7344 22.9585 41.0009 24.2986 40.8553C26.5528 40.6103 28.3097 42.7118 28.6294 44.7949C28.949 46.8781 27.7797 49.2963 24.7515 50.8499C24.0687 51.2003 19.4492 53.9397 19.4492 53.9397C19.4492 53.9397 16.1209 50.3122 15.2353 49.4654C12.7753 47.1133 12.3436 44.4622 13.2435 42.5565C14.1435 40.6508 16.4264 39.1371 18.5174 40.0142C19.7604 40.5356 20.8035 41.611 21.1611 42.1318Z" fill="url(#paint94_radial_2912_100)"/>
<path fill-rule="evenodd" clip-rule="evenodd" d="M21.1611 42.1318C21.6522 41.7344 22.9585 41.0009 24.2986 40.8553C26.5528 40.6103 28.3097 42.7118 28.6294 44.7949C28.949 46.8781 27.7797 49.2963 24.7515 50.8499C24.0687 51.2003 19.4492 53.9397 19.4492 53.9397C19.4492 53.9397 16.1209 50.3122 15.2353 49.4654C12.7753 47.1133 12.3436 44.4622 13.2435 42.5565C14.1435 40.6508 16.4264 39.1371 18.5174 40.0142C19.7604 40.5356 20.8035 41.611 21.1611 42.1318Z" fill="url(#paint95_radial_2912_100)"/>
<path d="M20.3797 43.2829C20.1443 44.9006 17.4009 48.4928 15.9171 48.2769C14.4333 48.0611 12.7251 46.0089 13.5747 43.7779C14.4242 41.547 15.5972 40.8475 17.0294 40.6315C18.4616 40.4156 20.615 41.6652 20.3797 43.2829Z" fill="url(#paint96_radial_2912_100)"/>
<path d="M27.3898 44.3027C27.1545 45.9204 24.4111 49.5126 22.9273 49.2967C21.4435 49.0809 20.4792 46.8615 21.0717 42.7895C21.0717 42.7895 22.6074 41.8673 24.0396 41.6513C25.4719 41.4354 27.6252 42.685 27.3898 44.3027Z" fill="url(#paint97_radial_2912_100)"/>
<path fill-rule="evenodd" clip-rule="evenodd" d="M214.218 63.2027C214.629 62.5757 215.839 61.2734 217.301 60.6233C219.759 59.5297 222.506 61.2675 223.622 63.5054C224.738 65.7434 224.293 68.8994 221.434 71.7523C220.79 72.3956 216.563 77.1649 216.563 77.1649C216.563 77.1649 211.488 74.2723 210.18 73.6364C206.548 71.8701 205.1 69.0311 205.426 66.5516C205.752 64.0722 207.783 61.5346 210.464 61.7679C212.057 61.9066 213.625 62.7437 214.218 63.2027Z" fill="#FA958B"/>
<path fill-rule="evenodd" clip-rule="evenodd" d="M214.218 63.2027C214.629 62.5757 215.839 61.2734 217.301 60.6233C219.759 59.5297 222.506 61.2675 223.622 63.5054C224.738 65.7434 224.293 68.8994 221.434 71.7523C220.79 72.3956 216.563 77.1649 216.563 77.1649C216.563 77.1649 211.488 74.2723 210.18 73.6364C206.548 71.8701 205.1 69.0311 205.426 66.5516C205.752 64.0722 207.783 61.5346 210.464 61.7679C212.057 61.9066 213.625 62.7437 214.218 63.2027Z" fill="url(#paint98_radial_2912_100)"/>
<path fill-rule="evenodd" clip-rule="evenodd" d="M214.218 63.2027C214.629 62.5757 215.839 61.2734 217.301 60.6233C219.759 59.5297 222.506 61.2675 223.622 63.5054C224.738 65.7434 224.293 68.8994 221.434 71.7523C220.79 72.3956 216.563 77.1649 216.563 77.1649C216.563 77.1649 211.488 74.2723 210.18 73.6364C206.548 71.8701 205.1 69.0311 205.426 66.5516C205.752 64.0722 207.783 61.5346 210.464 61.7679C212.057 61.9066 213.625 62.7437 214.218 63.2027Z" fill="url(#paint99_radial_2912_100)"/>
<path fill-rule="evenodd" clip-rule="evenodd" d="M214.218 63.2027C214.629 62.5757 215.839 61.2734 217.301 60.6233C219.759 59.5297 222.506 61.2675 223.622 63.5054C224.738 65.7434 224.293 68.8994 221.434 71.7523C220.79 72.3956 216.563 77.1649 216.563 77.1649C216.563 77.1649 211.488 74.2723 210.18 73.6364C206.548 71.8701 205.1 69.0311 205.426 66.5516C205.752 64.0722 207.783 61.5346 210.464 61.7679C212.057 61.9066 213.625 62.7437 214.218 63.2027Z" fill="url(#paint100_radial_2912_100)"/>
<path fill-rule="evenodd" clip-rule="evenodd" d="M214.218 63.2027C214.629 62.5757 215.839 61.2734 217.301 60.6233C219.759 59.5297 222.506 61.2675 223.622 63.5054C224.738 65.7434 224.293 68.8994 221.434 71.7523C220.79 72.3956 216.563 77.1649 216.563 77.1649C216.563 77.1649 211.488 74.2723 210.18 73.6364C206.548 71.8701 205.1 69.0311 205.426 66.5516C205.752 64.0722 207.783 61.5346 210.464 61.7679C212.057 61.9066 213.625 62.7437 214.218 63.2027Z" fill="url(#paint101_radial_2912_100)"/>
<path d="M213.752 64.7866C214.073 66.6997 212.275 71.7528 210.52 72.0466C208.765 72.3404 206.091 70.6406 206.243 67.8119C206.394 64.9833 207.466 63.7678 209.006 63.0048C210.546 62.2418 213.432 62.8735 213.752 64.7866Z" fill="url(#paint102_radial_2912_100)"/>
<path d="M222.043 63.3985C222.363 65.3116 220.565 70.3647 218.81 70.6585C217.056 70.9523 215.162 68.794 214.356 63.9782C214.356 63.9782 215.757 62.3797 217.297 61.6167C218.837 60.8537 221.723 61.4854 222.043 63.3985Z" fill="url(#paint103_radial_2912_100)"/>
<path fill-rule="evenodd" clip-rule="evenodd" d="M39.5293 25.0548C40.099 24.1856 41.7766 22.3803 43.8025 21.4791C47.2104 19.963 51.0181 22.3721 52.5653 25.4745C54.1124 28.577 53.4957 32.9521 49.5328 36.9069C48.6392 37.7987 42.7796 44.4103 42.7796 44.4103C42.7796 44.4103 35.7439 40.4003 33.9313 39.5188C28.8965 37.0702 26.8884 33.1345 27.3408 29.6973C27.7931 26.2601 30.6086 22.7423 34.3244 23.0658C36.5335 23.2581 38.7075 24.4185 39.5293 25.0548Z" fill="#FA958B"/>
<path fill-rule="evenodd" clip-rule="evenodd" d="M39.5293 25.0548C40.099 24.1856 41.7766 22.3803 43.8025 21.4791C47.2104 19.963 51.0181 22.3721 52.5653 25.4745C54.1124 28.577 53.4957 32.9521 49.5328 36.9069C48.6392 37.7987 42.7796 44.4103 42.7796 44.4103C42.7796 44.4103 35.7439 40.4003 33.9313 39.5188C28.8965 37.0702 26.8884 33.1345 27.3408 29.6973C27.7931 26.2601 30.6086 22.7423 34.3244 23.0658C36.5335 23.2581 38.7075 24.4185 39.5293 25.0548Z" fill="url(#paint104_radial_2912_100)"/>
<path fill-rule="evenodd" clip-rule="evenodd" d="M39.5293 25.0548C40.099 24.1856 41.7766 22.3803 43.8025 21.4791C47.2104 19.963 51.0181 22.3721 52.5653 25.4745C54.1124 28.577 53.4957 32.9521 49.5328 36.9069C48.6392 37.7987 42.7796 44.4103 42.7796 44.4103C42.7796 44.4103 35.7439 40.4003 33.9313 39.5188C28.8965 37.0702 26.8884 33.1345 27.3408 29.6973C27.7931 26.2601 30.6086 22.7423 34.3244 23.0658C36.5335 23.2581 38.7075 24.4185 39.5293 25.0548Z" fill="url(#paint105_radial_2912_100)"/>
<path fill-rule="evenodd" clip-rule="evenodd" d="M39.5293 25.0548C40.099 24.1856 41.7766 22.3803 43.8025 21.4791C47.2104 19.963 51.0181 22.3721 52.5653 25.4745C54.1124 28.577 53.4957 32.9521 49.5328 36.9069C48.6392 37.7987 42.7796 44.4103 42.7796 44.4103C42.7796 44.4103 35.7439 40.4003 33.9313 39.5188C28.8965 37.0702 26.8884 33.1345 27.3408 29.6973C27.7931 26.2601 30.6086 22.7423 34.3244 23.0658C36.5335 23.2581 38.7075 24.4185 39.5293 25.0548Z" fill="url(#paint106_radial_2912_100)"/>
<path fill-rule="evenodd" clip-rule="evenodd" d="M39.5293 25.0548C40.099 24.1856 41.7766 22.3803 43.8025 21.4791C47.2104 19.963 51.0181 22.3721 52.5653 25.4745C54.1124 28.577 53.4957 32.9521 49.5328 36.9069C48.6392 37.7987 42.7796 44.4103 42.7796 44.4103C42.7796 44.4103 35.7439 40.4003 33.9313 39.5188C28.8965 37.0702 26.8884 33.1345 27.3408 29.6973C27.7931 26.2601 30.6086 22.7423 34.3244 23.0658C36.5335 23.2581 38.7075 24.4185 39.5293 25.0548Z" fill="url(#paint107_radial_2912_100)"/>
<path d="M38.8842 27.2505C39.3282 29.9026 36.8355 36.9076 34.4029 37.3149C31.9703 37.7221 28.2638 35.3657 28.4737 31.4445C28.6836 27.5232 30.1696 25.8382 32.3045 24.7805C34.4394 23.7227 38.4402 24.5985 38.8842 27.2505Z" fill="url(#paint108_radial_2912_100)"/>
<path d="M50.3766 25.3263C50.8206 27.9784 48.328 34.9833 45.8953 35.3906C43.4627 35.7978 40.8374 32.8058 39.7198 26.1299C39.7198 26.1299 41.6621 23.9139 43.797 22.8562C45.9319 21.7985 49.9326 22.6742 50.3766 25.3263Z" fill="url(#paint109_radial_2912_100)"/>
<defs>
<radialGradient id="paint0_radial_2912_100" cx="0" cy="0" r="1" gradientUnits="userSpaceOnUse" gradientTransform="translate(168.095 125.141) rotate(1.40344) scale(61.2774 32.0256)">
<stop offset="0.620323" stop-color="#4D340E"/>
<stop offset="1" stop-color="#9E7045" stop-opacity="0"/>
</radialGradient>
<radialGradient id="paint1_radial_2912_100" cx="0" cy="0" r="1" gradientUnits="userSpaceOnUse" gradientTransform="translate(94.7408 113.135) rotate(5.73478) scale(46.7279 20.6283)">
<stop offset="0.620323" stop-color="#4D340E"/>
<stop offset="1" stop-color="#9E7045" stop-opacity="0"/>
</radialGradient>
<radialGradient id="paint2_radial_2912_100" cx="0" cy="0" r="1" gradientUnits="userSpaceOnUse" gradientTransform="translate(110.919 93.2903) rotate(14.9357) scale(32.3508 5.83298)">
<stop stop-color="#E4D1A2" stop-opacity="0.7"/>
<stop offset="1" stop-color="#E4D1A2" stop-opacity="0"/>
</radialGradient>
<radialGradient id="paint3_radial_2912_100" cx="0" cy="0" r="1" gradientUnits="userSpaceOnUse" gradientTransform="translate(201.08 85.4527) rotate(18.0195) scale(59.2983 20.4743)">
<stop stop-color="#E4D1A2" stop-opacity="0.7"/>
<stop offset="1" stop-color="#E4D1A2" stop-opacity="0"/>
</radialGradient>
<radialGradient id="paint4_radial_2912_100" cx="0" cy="0" r="1" gradientUnits="userSpaceOnUse" gradientTransform="translate(42.7491 86.62) rotate(3.57348) scale(21.4037 5.98058)">
<stop stop-color="#E4D1A2" stop-opacity="0.7"/>
<stop offset="1" stop-color="#E4D1A2" stop-opacity="0"/>
</radialGradient>
<radialGradient id="paint5_radial_2912_100" cx="0" cy="0" r="1" gradientUnits="userSpaceOnUse" gradientTransform="translate(69.6088 94.2909) rotate(-8.95252) scale(24.6468 6.87095)">
<stop stop-color="#E4D1A2" stop-opacity="0.7"/>
<stop offset="1" stop-color="#E4D1A2" stop-opacity="0"/>
</radialGradient>
<radialGradient id="paint6_radial_2912_100" cx="0" cy="0" r="1" gradientUnits="userSpaceOnUse" gradientTransform="translate(131.022 93.4686) rotate(1.49776) scale(11.9926 2.55061)">
<stop stop-color="#8292B1"/>
<stop offset="1"/>
</radialGradient>
<radialGradient id="paint7_radial_2912_100" cx="0" cy="0" r="1" gradientUnits="userSpaceOnUse" gradientTransform="translate(133.868 95.9762) rotate(-8.97964) scale(10.0415 2.38603)">
<stop stop-color="#8292B1"/>
<stop offset="1"/>
</radialGradient>
<radialGradient id="paint8_radial_2912_100" cx="0" cy="0" r="1" gradientUnits="userSpaceOnUse" gradientTransform="translate(152.237 99.9447) rotate(-35.9514) scale(5.87112 2.79093)">
<stop stop-color="#8292B1"/>
<stop offset="1"/>
</radialGradient>
<radialGradient id="paint9_radial_2912_100" cx="0" cy="0" r="1" gradientUnits="userSpaceOnUse" gradientTransform="translate(141.933 96.5245) rotate(-9.98301) scale(10.0737 3.11412)">
<stop stop-color="#8292B1"/>
<stop offset="1"/>
</radialGradient>
<radialGradient id="paint10_radial_2912_100" cx="0" cy="0" r="1" gradientUnits="userSpaceOnUse" gradientTransform="translate(145.699 99.2776) rotate(-24.4617) scale(10.7151 3.11368)">
<stop stop-color="#8292B1"/>
<stop offset="1"/>
</radialGradient>
<radialGradient id="paint11_radial_2912_100" cx="0" cy="0" r="1" gradientUnits="userSpaceOnUse" gradientTransform="translate(137.97 42.8209) rotate(80.7161) scale(17.0688 17.0688)">
<stop offset="0.166318" stop-color="#FFF6DD"/>
<stop offset="0.746033" stop-color="#D5CBAF"/>
<stop offset="1" stop-color="#A0967B"/>
</radialGradient>
<radialGradient id="paint12_radial_2912_100" cx="0" cy="0" r="1" gradientUnits="userSpaceOnUse" gradientTransform="translate(135.149 44.2916) rotate(73.6678) scale(13.7101)">
<stop stop-color="#FFF5D0"/>
<stop offset="1" stop-color="#FFF5D0" stop-opacity="0"/>
</radialGradient>
<radialGradient id="paint13_radial_2912_100" cx="0" cy="0" r="1" gradientUnits="userSpaceOnUse" gradientTransform="translate(142.766 70.8315) rotate(53.765) scale(29.3509 21.2948)">
<stop offset="0.166318" stop-color="#FFF6DD"/>
<stop offset="0.746033" stop-color="#D5CBAF"/>
<stop offset="1" stop-color="#A0967B"/>
</radialGradient>
<radialGradient id="paint14_radial_2912_100" cx="0" cy="0" r="1" gradientUnits="userSpaceOnUse" gradientTransform="translate(138.111 72.9251) rotate(57.3391) scale(19.6025 19.3008)">
<stop stop-color="#FFF5D0"/>
<stop offset="1" stop-color="#FFF5D0" stop-opacity="0"/>
</radialGradient>
<radialGradient id="paint15_radial_2912_100" cx="0" cy="0" r="1" gradientUnits="userSpaceOnUse" gradientTransform="translate(133.739 34.8415) rotate(36.0524) scale(23.7272 23.7272)">
<stop stop-color="#A9C5B6"/>
<stop offset="1" stop-color="#697B8E"/>
</radialGradient>
<radialGradient id="paint16_radial_2912_100" cx="0" cy="0" r="1" gradientUnits="userSpaceOnUse" gradientTransform="translate(138.535 34.8415) rotate(56.1717) scale(32.431 29.259)">
<stop offset="0.711851" stop-color="#697C8E" stop-opacity="0"/>
<stop offset="0.938655" stop-color="#485A6C"/>
</radialGradient>
<radialGradient id="paint17_radial_2912_100" cx="0" cy="0" r="1" gradientUnits="userSpaceOnUse" gradientTransform="translate(138.874 51.0783) rotate(106.112) scale(7.1385)">
<stop stop-color="#FF7583" stop-opacity="0.8"/>
<stop offset="1" stop-color="#FF96A1" stop-opacity="0"/>
</radialGradient>
<radialGradient id="paint18_radial_2912_100" cx="0" cy="0" r="1" gradientUnits="userSpaceOnUse" gradientTransform="translate(133.894 43.9817) rotate(89.6079) scale(3.97203)">
<stop stop-color="#8292B1"/>
<stop offset="1"/>
</radialGradient>
<radialGradient id="paint19_radial_2912_100" cx="0" cy="0" r="1" gradientUnits="userSpaceOnUse" gradientTransform="translate(133.669 44.5042) rotate(61.1123) scale(1.02231)">
<stop offset="0.642857" stop-color="white"/>
<stop offset="1" stop-color="white" stop-opacity="0"/>
</radialGradient>
<radialGradient id="paint20_radial_2912_100" cx="0" cy="0" r="1" gradientUnits="userSpaceOnUse" gradientTransform="translate(121.718 44.0745) rotate(161.885) scale(6.64527 3.14408)">
<stop stop-color="#E0D7D1"/>
<stop offset="0.552761" stop-color="#727C84"/>
<stop offset="1" stop-color="#172733"/>
</radialGradient>
<radialGradient id="paint21_radial_2912_100" cx="0" cy="0" r="1" gradientUnits="userSpaceOnUse" gradientTransform="translate(161.468 58.1103) rotate(44.3926) scale(37.3505 35.6391)">
<stop stop-color="#C1D7CB"/>
<stop offset="1" stop-color="#697B8E"/>
</radialGradient>
<radialGradient id="paint22_radial_2912_100" cx="0" cy="0" r="1" gradientUnits="userSpaceOnUse" gradientTransform="translate(174.669 66.2201) rotate(21.6533) scale(44.5007 28.0419)">
<stop offset="0.549378" stop-color="#475562" stop-opacity="0"/>
<stop offset="1" stop-color="#243442"/>
</radialGradient>
<radialGradient id="paint23_radial_2912_100" cx="0" cy="0" r="1" gradientUnits="userSpaceOnUse" gradientTransform="translate(163.316 56.5622) rotate(18.992) scale(10.3354 5.75131)">
<stop stop-color="#DEF6F6"/>
<stop offset="1" stop-color="#C5CFCF" stop-opacity="0"/>
</radialGradient>
<radialGradient id="paint24_radial_2912_100" cx="0" cy="0" r="1" gradientUnits="userSpaceOnUse" gradientTransform="translate(163.444 87.8372) rotate(6.43233) scale(15.1067 6.27429)">
<stop stop-color="#DEF6F6"/>
<stop offset="1" stop-color="#C5CFCF" stop-opacity="0"/>
</radialGradient>
<radialGradient id="paint25_radial_2912_100" cx="0" cy="0" r="1" gradientUnits="userSpaceOnUse" gradientTransform="translate(163.408 79.0331) rotate(15.3277) scale(8.55576 4.14947)">
<stop stop-color="#475562"/>
<stop offset="1" stop-color="#475562" stop-opacity="0"/>
</radialGradient>
<radialGradient id="paint26_radial_2912_100" cx="0" cy="0" r="1" gradientUnits="userSpaceOnUse" gradientTransform="translate(169.835 81.1922) rotate(19.0153) scale(13.1055 3.78463)">
<stop stop-color="#DEF6F6"/>
<stop offset="1" stop-color="#C5CFCF" stop-opacity="0"/>
</radialGradient>
<radialGradient id="paint27_radial_2912_100" cx="0" cy="0" r="1" gradientUnits="userSpaceOnUse" gradientTransform="translate(171.939 76.7366) rotate(11.9562) scale(9.32265 3.68901)">
<stop stop-color="#475562"/>
<stop offset="1" stop-color="#475562" stop-opacity="0"/>
</radialGradient>
<radialGradient id="paint28_radial_2912_100" cx="0" cy="0" r="1" gradientUnits="userSpaceOnUse" gradientTransform="translate(176.038 88.9834) rotate(-2.4748) scale(8.88173 4.94237)">
<stop stop-color="#DEF6F6"/>
<stop offset="1" stop-color="#C5CFCF" stop-opacity="0"/>
</radialGradient>
<radialGradient id="paint29_radial_2912_100" cx="0" cy="0" r="1" gradientUnits="userSpaceOnUse" gradientTransform="translate(177.511 83.9563) rotate(4.89994) scale(9.26032 3.30394)">
<stop stop-color="#243442"/>
<stop offset="1" stop-color="#475562" stop-opacity="0"/>
</radialGradient>
<radialGradient id="paint30_radial_2912_100" cx="0" cy="0" r="1" gradientUnits="userSpaceOnUse" gradientTransform="translate(180.3 77.515) rotate(7.97631) scale(13.0264 7.24873)">
<stop stop-color="#DEF6F6"/>
<stop offset="1" stop-color="#C5CFCF" stop-opacity="0"/>
</radialGradient>
<radialGradient id="paint31_radial_2912_100" cx="0" cy="0" r="1" gradientUnits="userSpaceOnUse" gradientTransform="translate(179.001 68.7075) rotate(2.66734) scale(7.3118 3.64211)">
<stop stop-color="#243442"/>
<stop offset="1" stop-color="#475562" stop-opacity="0"/>
</radialGradient>
<radialGradient id="paint32_radial_2912_100" cx="0" cy="0" r="1" gradientUnits="userSpaceOnUse" gradientTransform="translate(182.828 84.1259) rotate(2.63028) scale(10.7539 5.98417)">
<stop stop-color="#DEF6F6"/>
<stop offset="1" stop-color="#C5CFCF" stop-opacity="0"/>
</radialGradient>
<radialGradient id="paint33_radial_2912_100" cx="0" cy="0" r="1" gradientUnits="userSpaceOnUse" gradientTransform="translate(183.214 76.8053) rotate(12.9836) scale(11.3411 3.98219)">
<stop stop-color="#243442"/>
<stop offset="1" stop-color="#475562" stop-opacity="0"/>
</radialGradient>
<radialGradient id="paint34_radial_2912_100" cx="0" cy="0" r="1" gradientUnits="userSpaceOnUse" gradientTransform="translate(166.479 76.5603) rotate(10.4335) scale(17.3665 7.28948)">
<stop stop-color="#DEF6F6"/>
<stop offset="1" stop-color="#C5CFCF" stop-opacity="0"/>
</radialGradient>
<radialGradient id="paint35_radial_2912_100" cx="0" cy="0" r="1" gradientUnits="userSpaceOnUse" gradientTransform="translate(165.371 65.6689) rotate(15.5097) scale(9.60079 5.01695)">
<stop stop-color="#475562"/>
<stop offset="1" stop-color="#475562" stop-opacity="0"/>
</radialGradient>
<radialGradient id="paint36_radial_2912_100" cx="0" cy="0" r="1" gradientUnits="userSpaceOnUse" gradientTransform="translate(175.205 68.9461) rotate(8.05213) scale(11.445 6.36872)">
<stop stop-color="#DEF6F6"/>
<stop offset="1" stop-color="#C5CFCF" stop-opacity="0"/>
</radialGradient>
<radialGradient id="paint37_radial_2912_100" cx="0" cy="0" r="1" gradientUnits="userSpaceOnUse" gradientTransform="translate(172.305 59.4511) rotate(-19.0218) scale(9.3147 4.94602)">
<stop stop-color="#243442"/>
<stop offset="1" stop-color="#475562" stop-opacity="0"/>
</radialGradient>
<radialGradient id="paint38_radial_2912_100" cx="0" cy="0" r="1" gradientUnits="userSpaceOnUse" gradientTransform="translate(153.283 74.1369) rotate(36.4675) scale(12.7594 5.39165)">
<stop stop-color="#DEF6F6"/>
<stop offset="1" stop-color="#C5CFCF" stop-opacity="0"/>
</radialGradient>
<radialGradient id="paint39_radial_2912_100" cx="0" cy="0" r="1" gradientUnits="userSpaceOnUse" gradientTransform="translate(156.062 67.1209) rotate(30.6052) scale(11.2476 5.96589)">
<stop stop-color="#475562"/>
<stop offset="1" stop-color="#475562" stop-opacity="0"/>
</radialGradient>
<radialGradient id="paint40_radial_2912_100" cx="0" cy="0" r="1" gradientUnits="userSpaceOnUse" gradientTransform="translate(159.936 64.1263) rotate(17.8577) scale(15.9966 8.49592)">
<stop stop-color="#DEF6F6"/>
<stop offset="1" stop-color="#C5CFCF" stop-opacity="0"/>
</radialGradient>
<radialGradient id="paint41_radial_2912_100" cx="0" cy="0" r="1" gradientUnits="userSpaceOnUse" gradientTransform="translate(163.208 52.4496) rotate(43.8192) scale(13.1418 6.9564)">
<stop stop-color="#243442"/>
<stop offset="1" stop-color="#475562" stop-opacity="0"/>
</radialGradient>
<radialGradient id="paint42_radial_2912_100" cx="0" cy="0" r="1" gradientUnits="userSpaceOnUse" gradientTransform="translate(152.346 66.2843) rotate(15.9445) scale(16.3838 8.67904)">
<stop stop-color="#DAF2F2"/>
<stop offset="1" stop-color="#C5CFCF" stop-opacity="0"/>
</radialGradient>
<radialGradient id="paint43_radial_2912_100" cx="0" cy="0" r="1" gradientUnits="userSpaceOnUse" gradientTransform="translate(157.705 56.229) rotate(61.35) scale(11.8893 8.28996)">
<stop stop-color="#243442"/>
<stop offset="1" stop-color="#475562" stop-opacity="0"/>
</radialGradient>
<radialGradient id="paint44_radial_2912_100" cx="0" cy="0" r="1" gradientUnits="userSpaceOnUse" gradientTransform="translate(143.729 62.85) rotate(56.053) scale(8.88173 4.94237)">
<stop stop-color="#CCE1E1"/>
<stop offset="1" stop-color="#C5CFCF" stop-opacity="0"/>
</radialGradient>
<radialGradient id="paint45_radial_2912_100" cx="0" cy="0" r="1" gradientUnits="userSpaceOnUse" gradientTransform="translate(150.419 58.6025) rotate(67.6417) scale(10.375 7.98308)">
<stop stop-color="#243442"/>
<stop offset="1" stop-color="#475562" stop-opacity="0"/>
</radialGradient>
<radialGradient id="paint46_radial_2912_100" cx="0" cy="0" r="1" gradientUnits="userSpaceOnUse" gradientTransform="translate(94.5567 89.3719) rotate(178.352) scale(10.0282 2.34702)">
<stop stop-color="#8292B1"/>
<stop offset="1"/>
</radialGradient>
<radialGradient id="paint47_radial_2912_100" cx="0" cy="0" r="1" gradientUnits="userSpaceOnUse" gradientTransform="translate(92.1769 91.6794) rotate(-170.134) scale(8.41761 2.1901)">
<stop stop-color="#8292B1"/>
<stop offset="1"/>
</radialGradient>
<radialGradient id="paint48_radial_2912_100" cx="0" cy="0" r="1" gradientUnits="userSpaceOnUse" gradientTransform="translate(75.8493 97.3125) rotate(-133.772) scale(6.00347 2.85385)">
<stop stop-color="#8292B1"/>
<stop offset="1"/>
</radialGradient>
<radialGradient id="paint49_radial_2912_100" cx="0" cy="0" r="1" gradientUnits="userSpaceOnUse" gradientTransform="translate(86.8404 95.751) rotate(-159.74) scale(10.3007 3.18432)">
<stop stop-color="#8292B1"/>
<stop offset="1"/>
</radialGradient>
<radialGradient id="paint50_radial_2912_100" cx="0" cy="0" r="1" gradientUnits="userSpaceOnUse" gradientTransform="translate(82.5482 97.8345) rotate(-145.261) scale(10.9567 3.18387)">
<stop stop-color="#8292B1"/>
<stop offset="1"/>
</radialGradient>
<radialGradient id="paint51_radial_2912_100" cx="0" cy="0" r="1" gradientUnits="userSpaceOnUse" gradientTransform="translate(88.2827 38.1085) rotate(99.2839) scale(17.4535 17.4535)">
<stop offset="0.166318" stop-color="#FFF6DD"/>
<stop offset="0.746033" stop-color="#D5CBAF"/>
<stop offset="1" stop-color="#A0967B"/>
</radialGradient>
<radialGradient id="paint52_radial_2912_100" cx="0" cy="0" r="1" gradientUnits="userSpaceOnUse" gradientTransform="translate(91.1673 39.6123) rotate(106.332) scale(14.0192)">
<stop stop-color="#FFF5D0"/>
<stop offset="1" stop-color="#FFF5D0" stop-opacity="0"/>
</radialGradient>
<radialGradient id="paint53_radial_2912_100" cx="0" cy="0" r="1" gradientUnits="userSpaceOnUse" gradientTransform="translate(83.3788 66.7502) rotate(126.235) scale(30.0125 21.7749)">
<stop offset="0.166318" stop-color="#FFF6DD"/>
<stop offset="0.746033" stop-color="#D5CBAF"/>
<stop offset="1" stop-color="#A0967B"/>
</radialGradient>
<radialGradient id="paint54_radial_2912_100" cx="0" cy="0" r="1" gradientUnits="userSpaceOnUse" gradientTransform="translate(83.0002 64.9968) rotate(105.293) scale(21.5316 21.2002)">
<stop stop-color="#FFF5D0"/>
<stop offset="1" stop-color="#FFF5D0" stop-opacity="0"/>
</radialGradient>
<radialGradient id="paint55_radial_2912_100" cx="0" cy="0" r="1" gradientUnits="userSpaceOnUse" gradientTransform="translate(75.6445 24.4681) rotate(97.6392) scale(19.9365)">
<stop stop-color="#A9C5B6"/>
<stop offset="1" stop-color="#697B8E"/>
</radialGradient>
<radialGradient id="paint56_radial_2912_100" cx="0" cy="0" r="1" gradientUnits="userSpaceOnUse" gradientTransform="translate(87.7058 29.9488) rotate(123.828) scale(33.162 29.9186)">
<stop offset="0.711851" stop-color="#697C8E" stop-opacity="0"/>
<stop offset="0.938655" stop-color="#485A6C"/>
</radialGradient>
<radialGradient id="paint57_radial_2912_100" cx="0" cy="0" r="1" gradientUnits="userSpaceOnUse" gradientTransform="translate(66.0712 52.7371) rotate(148.591) scale(38.1925 36.4425)">
<stop stop-color="#C1D7CB"/>
<stop offset="1" stop-color="#697B8E"/>
</radialGradient>
<radialGradient id="paint58_radial_2912_100" cx="0" cy="0" r="1" gradientUnits="userSpaceOnUse" gradientTransform="translate(51.0552 57.7852) rotate(171.33) scale(45.5039 28.6741)">
<stop offset="0.549378" stop-color="#475562" stop-opacity="0"/>
<stop offset="1" stop-color="#243442"/>
</radialGradient>
<radialGradient id="paint59_radial_2912_100" cx="0" cy="0" r="1" gradientUnits="userSpaceOnUse" gradientTransform="translate(84.8234 46.2856) rotate(90) scale(7.29942)">
<stop stop-color="#FF7583" stop-opacity="0.8"/>
<stop offset="1" stop-color="#FF96A1" stop-opacity="0"/>
</radialGradient>
<radialGradient id="paint60_radial_2912_100" cx="0" cy="0" r="1" gradientUnits="userSpaceOnUse" gradientTransform="translate(91.6 38.9631) rotate(106.504) scale(4.06157)">
<stop stop-color="#8292B1"/>
<stop offset="1"/>
</radialGradient>
<radialGradient id="paint61_radial_2912_100" cx="0" cy="0" r="1" gradientUnits="userSpaceOnUse" gradientTransform="translate(91.6721 39.54) rotate(135) scale(1.04536)">
<stop offset="0.642857" stop-color="white"/>
<stop offset="1" stop-color="white" stop-opacity="0"/>
</radialGradient>
<radialGradient id="paint62_radial_2912_100" cx="0" cy="0" r="1" gradientUnits="userSpaceOnUse" gradientTransform="translate(103.535 42.0642) rotate(34.2276) scale(6.79507 3.21496)">
<stop stop-color="#E0D7D1"/>
<stop offset="0.552761" stop-color="#727C84"/>
<stop offset="1" stop-color="#172733"/>
</radialGradient>
<radialGradient id="paint63_radial_2912_100" cx="0" cy="0" r="1" gradientUnits="userSpaceOnUse" gradientTransform="translate(64.5862 50.7699) rotate(173.992) scale(10.5684 5.88096)">
<stop stop-color="#DEF6F6"/>
<stop offset="1" stop-color="#C5CFCF" stop-opacity="0"/>
</radialGradient>
<radialGradient id="paint64_radial_2912_100" cx="0" cy="0" r="1" gradientUnits="userSpaceOnUse" gradientTransform="translate(57.2731 81.9037) rotate(-173.449) scale(15.4473 6.41572)">
<stop stop-color="#DEF6F6"/>
<stop offset="1" stop-color="#C5CFCF" stop-opacity="0"/>
</radialGradient>
<radialGradient id="paint65_radial_2912_100" cx="0" cy="0" r="1" gradientUnits="userSpaceOnUse" gradientTransform="translate(59.3318 73.1396) rotate(177.656) scale(8.74862 4.24301)">
<stop stop-color="#475562"/>
<stop offset="1" stop-color="#475562" stop-opacity="0"/>
</radialGradient>
<radialGradient id="paint66_radial_2912_100" cx="0" cy="0" r="1" gradientUnits="userSpaceOnUse" gradientTransform="translate(52.4318 73.8136) rotate(173.968) scale(13.401 3.86995)">
<stop stop-color="#DEF6F6"/>
<stop offset="1" stop-color="#C5CFCF" stop-opacity="0"/>
</radialGradient>
<radialGradient id="paint67_radial_2912_100" cx="0" cy="0" r="1" gradientUnits="userSpaceOnUse" gradientTransform="translate(51.3597 68.8908) rotate(-178.973) scale(9.53281 3.77217)">
<stop stop-color="#475562"/>
<stop offset="1" stop-color="#475562" stop-opacity="0"/>
</radialGradient>
<radialGradient id="paint68_radial_2912_100" cx="0" cy="0" r="1" gradientUnits="userSpaceOnUse" gradientTransform="translate(44.4611 80.1521) rotate(-164.542) scale(9.08194 5.05378)">
<stop stop-color="#DEF6F6"/>
<stop offset="1" stop-color="#C5CFCF" stop-opacity="0"/>
</radialGradient>
<radialGradient id="paint69_radial_2912_100" cx="0" cy="0" r="1" gradientUnits="userSpaceOnUse" gradientTransform="translate(44.1481 74.8047) rotate(-171.916) scale(9.46907 3.37842)">
<stop stop-color="#243442"/>
<stop offset="1" stop-color="#475562" stop-opacity="0"/>
</radialGradient>
<radialGradient id="paint70_radial_2912_100" cx="0" cy="0" r="1" gradientUnits="userSpaceOnUse" gradientTransform="translate(42.8501 67.746) rotate(-174.993) scale(13.32 7.41213)">
<stop stop-color="#DEF6F6"/>
<stop offset="1" stop-color="#C5CFCF" stop-opacity="0"/>
</radialGradient>
<radialGradient id="paint71_radial_2912_100" cx="0" cy="0" r="1" gradientUnits="userSpaceOnUse" gradientTransform="translate(46.1674 59.2685) rotate(-169.684) scale(7.47662 3.72421)">
<stop stop-color="#243442"/>
<stop offset="1" stop-color="#475562" stop-opacity="0"/>
</radialGradient>
<radialGradient id="paint72_radial_2912_100" cx="0" cy="0" r="1" gradientUnits="userSpaceOnUse" gradientTransform="translate(38.8116 73.7519) rotate(-169.647) scale(10.9963 6.11907)">
<stop stop-color="#DEF6F6"/>
<stop offset="1" stop-color="#C5CFCF" stop-opacity="0"/>
</radialGradient>
<radialGradient id="paint73_radial_2912_100" cx="0" cy="0" r="1" gradientUnits="userSpaceOnUse" gradientTransform="translate(40.1097 66.3691) rotate(-180) scale(11.5968 4.07196)">
<stop stop-color="#243442"/>
<stop offset="1" stop-color="#475562" stop-opacity="0"/>
</radialGradient>
<radialGradient id="paint74_radial_2912_100" cx="0" cy="0" r="1" gradientUnits="userSpaceOnUse" gradientTransform="translate(56.8404 69.9697) rotate(-177.45) scale(17.7579 7.4538)">
<stop stop-color="#DEF6F6"/>
<stop offset="1" stop-color="#C5CFCF" stop-opacity="0"/>
</radialGradient>
<radialGradient id="paint75_radial_2912_100" cx="0" cy="0" r="1" gradientUnits="userSpaceOnUse" gradientTransform="translate(60.4462 59.372) rotate(177.474) scale(9.81722 5.13004)">
<stop stop-color="#475562"/>
<stop offset="1" stop-color="#475562" stop-opacity="0"/>
</radialGradient>
<radialGradient id="paint76_radial_2912_100" cx="0" cy="0" r="1" gradientUnits="userSpaceOnUse" gradientTransform="translate(49.8943 60.3779) rotate(-175.069) scale(11.703 6.51229)">
<stop stop-color="#DEF6F6"/>
<stop offset="1" stop-color="#C5CFCF" stop-opacity="0"/>
</radialGradient>
<radialGradient id="paint77_radial_2912_100" cx="0" cy="0" r="1" gradientUnits="userSpaceOnUse" gradientTransform="translate(54.9654 51.5834) rotate(-147.995) scale(9.52468 5.05752)">
<stop stop-color="#243442"/>
<stop offset="1" stop-color="#475562" stop-opacity="0"/>
</radialGradient>
<radialGradient id="paint78_radial_2912_100" cx="0" cy="0" r="1" gradientUnits="userSpaceOnUse" gradientTransform="translate(70.5452 70.5867) rotate(156.516) scale(13.047 5.5132)">
<stop stop-color="#DEF6F6"/>
<stop offset="1" stop-color="#C5CFCF" stop-opacity="0"/>
</radialGradient>
<radialGradient id="paint79_radial_2912_100" cx="0" cy="0" r="1" gradientUnits="userSpaceOnUse" gradientTransform="translate(69.3885 62.9577) rotate(162.378) scale(11.5012 6.10038)">
<stop stop-color="#475562"/>
<stop offset="1" stop-color="#475562" stop-opacity="0"/>
</radialGradient>
<radialGradient id="paint80_radial_2912_100" cx="0" cy="0" r="1" gradientUnits="userSpaceOnUse" gradientTransform="translate(66.2154 59.0837) rotate(175.126) scale(16.3572 8.68744)">
<stop stop-color="#DEF6F6"/>
<stop offset="1" stop-color="#C5CFCF" stop-opacity="0"/>
</radialGradient>
<radialGradient id="paint81_radial_2912_100" cx="0" cy="0" r="1" gradientUnits="userSpaceOnUse" gradientTransform="translate(65.6385 46.6975) rotate(149.164) scale(13.438 7.11322)">
<stop stop-color="#243442"/>
<stop offset="1" stop-color="#475562" stop-opacity="0"/>
</radialGradient>
<radialGradient id="paint82_radial_2912_100" cx="0" cy="0" r="1" gradientUnits="userSpaceOnUse" gradientTransform="translate(73.2827 62.9776) rotate(177.039) scale(16.7531 8.87469)">
<stop stop-color="#DAF2F2"/>
<stop offset="1" stop-color="#C5CFCF" stop-opacity="0"/>
</radialGradient>
<radialGradient id="paint83_radial_2912_100" cx="0" cy="0" r="1" gradientUnits="userSpaceOnUse" gradientTransform="translate(70.2539 51.7277) rotate(131.634) scale(12.1574 8.47684)">
<stop stop-color="#243442"/>
<stop offset="1" stop-color="#475562" stop-opacity="0"/>
</radialGradient>
<radialGradient id="paint84_radial_2912_100" cx="0" cy="0" r="1" gradientUnits="userSpaceOnUse" gradientTransform="translate(82.6577 61.5353) rotate(136.931) scale(9.08195 5.05378)">
<stop stop-color="#CCE1E1"/>
<stop offset="1" stop-color="#C5CFCF" stop-opacity="0"/>
</radialGradient>
<radialGradient id="paint85_radial_2912_100" cx="0" cy="0" r="1" gradientUnits="userSpaceOnUse" gradientTransform="translate(76.9675 55.7661) rotate(125.342) scale(10.6089 8.16304)">
<stop stop-color="#243442"/>
<stop offset="1" stop-color="#475562" stop-opacity="0"/>
</radialGradient>
<radialGradient id="paint86_radial_2912_100" cx="0" cy="0" r="1" gradientUnits="userSpaceOnUse" gradientTransform="translate(203.236 28.4498) rotate(107.631) scale(27.6935 16.3721)">
<stop offset="0.588785" stop-color="#A40010" stop-opacity="0"/>
<stop offset="1" stop-color="#A40010"/>
</radialGradient>
<radialGradient id="paint87_radial_2912_100" cx="0" cy="0" r="1" gradientUnits="userSpaceOnUse" gradientTransform="translate(210.07 48.8501) rotate(138.619) scale(20.9775 8.41597)">
<stop stop-color="#FF007A"/>
<stop offset="1" stop-color="#D10019" stop-opacity="0"/>
</radialGradient>
<radialGradient id="paint88_radial_2912_100" cx="0" cy="0" r="1" gradientUnits="userSpaceOnUse" gradientTransform="translate(203.947 29.4936) rotate(128.55) scale(15.0852 9.40623)">
<stop stop-color="#FC615F"/>
<stop offset="1" stop-color="#FC615F" stop-opacity="0"/>
</radialGradient>
<radialGradient id="paint89_radial_2912_100" cx="0" cy="0" r="1" gradientUnits="userSpaceOnUse" gradientTransform="translate(192.749 32.6296) rotate(75.2208) scale(22.7341 27.1106)">
<stop offset="0.35809" stop-color="#ED3737"/>
<stop offset="1" stop-color="#ED3737" stop-opacity="0"/>
</radialGradient>
<radialGradient id="paint90_radial_2912_100" cx="0" cy="0" r="1" gradientUnits="userSpaceOnUse" gradientTransform="translate(191.906 31.7927) rotate(98.2778) scale(6.17569 4.81916)">
<stop offset="0.161458" stop-color="#FBD8DD" stop-opacity="0.8"/>
<stop offset="1" stop-color="#FBD8DD" stop-opacity="0"/>
</radialGradient>
<radialGradient id="paint91_radial_2912_100" cx="0" cy="0" r="1" gradientUnits="userSpaceOnUse" gradientTransform="translate(205.817 33.8396) rotate(96.1116) scale(8.21192 6.40984)">
<stop offset="0.161458" stop-color="#FBD8DD" stop-opacity="0.3"/>
<stop offset="1" stop-color="#FBD8DD" stop-opacity="0"/>
</radialGradient>
<radialGradient id="paint92_radial_2912_100" cx="0" cy="0" r="1" gradientUnits="userSpaceOnUse" gradientTransform="translate(21.7701 40.9541) rotate(107.631) scale(13.745 8.12591)">
<stop offset="0.588785" stop-color="#A40010" stop-opacity="0"/>
<stop offset="1" stop-color="#A40010"/>
</radialGradient>
<radialGradient id="paint93_radial_2912_100" cx="0" cy="0" r="1" gradientUnits="userSpaceOnUse" gradientTransform="translate(25.1619 51.0793) rotate(138.619) scale(10.4117 4.17707)">
<stop stop-color="#FF007A"/>
<stop offset="1" stop-color="#D10019" stop-opacity="0"/>
</radialGradient>
<radialGradient id="paint94_radial_2912_100" cx="0" cy="0" r="1" gradientUnits="userSpaceOnUse" gradientTransform="translate(22.1229 41.4721) rotate(128.55) scale(7.48718 4.66857)">
<stop stop-color="#FC615F"/>
<stop offset="1" stop-color="#FC615F" stop-opacity="0"/>
</radialGradient>
<radialGradient id="paint95_radial_2912_100" cx="0" cy="0" r="1" gradientUnits="userSpaceOnUse" gradientTransform="translate(16.5649 43.0286) rotate(75.2208) scale(11.2835 13.4557)">
<stop offset="0.35809" stop-color="#ED3737"/>
<stop offset="1" stop-color="#ED3737" stop-opacity="0"/>
</radialGradient>
<radialGradient id="paint96_radial_2912_100" cx="0" cy="0" r="1" gradientUnits="userSpaceOnUse" gradientTransform="translate(16.1469 42.6132) rotate(98.2778) scale(3.06516 2.39188)">
<stop offset="0.161458" stop-color="#FBD8DD" stop-opacity="0.8"/>
<stop offset="1" stop-color="#FBD8DD" stop-opacity="0"/>
</radialGradient>
<radialGradient id="paint97_radial_2912_100" cx="0" cy="0" r="1" gradientUnits="userSpaceOnUse" gradientTransform="translate(23.0512 43.6291) rotate(96.1116) scale(4.0758 3.18138)">
<stop offset="0.161458" stop-color="#FBD8DD" stop-opacity="0.3"/>
<stop offset="1" stop-color="#FBD8DD" stop-opacity="0"/>
</radialGradient>
<radialGradient id="paint98_radial_2912_100" cx="0" cy="0" r="1" gradientUnits="userSpaceOnUse" gradientTransform="translate(214.48 61.6512) rotate(89.8493) scale(16.3099 9.64224)">
<stop offset="0.588785" stop-color="#FF3206" stop-opacity="0"/>
<stop offset="1" stop-color="#FF3206" stop-opacity="0.4"/>
</radialGradient>
<radialGradient id="paint99_radial_2912_100" cx="0" cy="0" r="1" gradientUnits="userSpaceOnUse" gradientTransform="translate(221.981 71.8627) rotate(120.838) scale(12.3546 4.95653)">
<stop stop-color="#FF6161"/>
<stop offset="1" stop-color="#FF333B" stop-opacity="0"/>
</radialGradient>
<radialGradient id="paint100_radial_2912_100" cx="0" cy="0" r="1" gradientUnits="userSpaceOnUse" gradientTransform="translate(215.066 62.1087) rotate(110.768) scale(8.88432 5.53974)">
<stop stop-color="#FFE2DF"/>
<stop offset="1" stop-color="#FFC3BD" stop-opacity="0"/>
</radialGradient>
<radialGradient id="paint101_radial_2912_100" cx="0" cy="0" r="1" gradientUnits="userSpaceOnUse" gradientTransform="translate(209.35 65.8815) rotate(57.4393) scale(13.3891 15.9666)">
<stop offset="0.39" stop-color="#FF958C"/>
<stop offset="1" stop-color="#FA948B" stop-opacity="0"/>
</radialGradient>
<radialGradient id="paint102_radial_2912_100" cx="0" cy="0" r="1" gradientUnits="userSpaceOnUse" gradientTransform="translate(208.727 65.5638) rotate(80.4963) scale(3.63714 2.83821)">
<stop offset="0.161458" stop-color="#FBD8DD" stop-opacity="0.8"/>
<stop offset="1" stop-color="#FBD8DD" stop-opacity="0"/>
</radialGradient>
<radialGradient id="paint103_radial_2912_100" cx="0" cy="0" r="1" gradientUnits="userSpaceOnUse" gradientTransform="translate(216.896 64.2096) rotate(78.3301) scale(4.83636 3.77504)">
<stop offset="0.161458" stop-color="#FBD8DD" stop-opacity="0.3"/>
<stop offset="1" stop-color="#FBD8DD" stop-opacity="0"/>
</radialGradient>
<radialGradient id="paint104_radial_2912_100" cx="0" cy="0" r="1" gradientUnits="userSpaceOnUse" gradientTransform="translate(39.8916 22.904) rotate(89.8493) scale(22.61 13.3668)">
<stop offset="0.588785" stop-color="#FF3206" stop-opacity="0"/>
<stop offset="1" stop-color="#FF3206" stop-opacity="0.4"/>
</radialGradient>
<radialGradient id="paint105_radial_2912_100" cx="0" cy="0" r="1" gradientUnits="userSpaceOnUse" gradientTransform="translate(50.2909 37.06) rotate(120.838) scale(17.1269 6.87111)">
<stop stop-color="#FF6161"/>
<stop offset="1" stop-color="#FF333B" stop-opacity="0"/>
</radialGradient>
<radialGradient id="paint106_radial_2912_100" cx="0" cy="0" r="1" gradientUnits="userSpaceOnUse" gradientTransform="translate(40.7044 23.5383) rotate(110.768) scale(12.3161 7.6796)">
<stop stop-color="#FFE2DF"/>
<stop offset="1" stop-color="#FFC3BD" stop-opacity="0"/>
</radialGradient>
<radialGradient id="paint107_radial_2912_100" cx="0" cy="0" r="1" gradientUnits="userSpaceOnUse" gradientTransform="translate(32.7805 28.7684) rotate(57.4393) scale(18.5609 22.1341)">
<stop offset="0.39" stop-color="#FF958C"/>
<stop offset="1" stop-color="#FA948B" stop-opacity="0"/>
</radialGradient>
<radialGradient id="paint108_radial_2912_100" cx="0" cy="0" r="1" gradientUnits="userSpaceOnUse" gradientTransform="translate(31.9176 28.3279) rotate(80.4963) scale(5.04207 3.93454)">
<stop offset="0.161458" stop-color="#FBD8DD" stop-opacity="0.8"/>
<stop offset="1" stop-color="#FBD8DD" stop-opacity="0"/>
</radialGradient>
<radialGradient id="paint109_radial_2912_100" cx="0" cy="0" r="1" gradientUnits="userSpaceOnUse" gradientTransform="translate(43.2421 26.4507) rotate(78.3301) scale(6.70453 5.23324)">
<stop offset="0.161458" stop-color="#FBD8DD" stop-opacity="0.3"/>
<stop offset="1" stop-color="#FBD8DD" stop-opacity="0"/>
</radialGradient>
</defs>
</svg>
